<svg id="Layer_1" data-name="Layer 1" xmlns="http://www.w3.org/2000/svg" xmlns:xlink="http://www.w3.org/1999/xlink" viewBox="0 0 1000 1000"><defs><style>.cls-1{fill:#32374b;}.cls-2,.cls-5{fill:none;}.cls-3{fill:#89c973;}.cls-4{fill:url(#linear-gradient);}.cls-5{stroke:#89c973;stroke-miterlimit:10;stroke-width:4px;}</style><linearGradient id="linear-gradient" x1="427.81" y1="-407.72" x2="566.3" y2="-289.3" gradientTransform="matrix(1.25, 0, 0, -1.25, -127.76, 104.75)" gradientUnits="userSpaceOnUse"><stop offset="0" stop-color="#beea2e"/><stop offset="1" stop-color="#52ba00"/></linearGradient></defs><title>Untitled-3</title><path class="cls-1" d="M561.86,541.29l158.91,134a34.2,34.2,0,1,0,2.74-2.95L564.44,538.22ZM750.44,667a30.13,30.13,0,1,1-33.27,26.62A30.16,30.16,0,0,1,750.44,667Z"/><path class="cls-1" d="M319,252.91,436.6,426.08l3.32-2.26L322.35,250.75a31.56,31.56,0,1,0-3.39,2.16ZM278.3,215.1a27.45,27.45,0,1,1,15.16,35.74A27.48,27.48,0,0,1,278.3,215.1Z"/><rect class="cls-1" x="468" y="231.91" width="4.02" height="209.47" transform="translate(-82.03 164.92) rotate(-18.33)"/><path class="cls-1" d="M448,230.72a20.75,20.75,0,1,0-29.13,3.64h0A20.78,20.78,0,0,0,448,230.72Zm-26.66.47a16.73,16.73,0,1,1,23.49-2.94A16.76,16.76,0,0,1,421.36,231.19Z"/><path class="cls-1" d="M445,508.85l-204.6-38.65a24.87,24.87,0,1,0-1.76,7.8,25.14,25.14,0,0,0,1.19-3.82L444.3,512.8ZM235,476.51a20.69,20.69,0,1,1,1.51-8.18A20.69,20.69,0,0,1,235,476.51Z"/><path class="cls-1" d="M240.26,700.39a24.61,24.61,0,0,0-.47-19,25.08,25.08,0,0,0-1.91-3.5L408.09,558.2l-2.31-3.29L235.42,674.75a24.78,24.78,0,1,0,4.83,25.64Zm-30.58,10.45a20.78,20.78,0,1,1,26.83-11.9A20.62,20.62,0,0,1,209.67,710.84Z"/><path class="cls-1" d="M398.11,751.1a20.65,20.65,0,0,0-9-12.36l41.29-117.59-3.79-1.33L385.45,736.93a20.72,20.72,0,1,0,12.67,14.17Zm-36.25,9.34a16.71,16.71,0,1,1,20.35,12A16.73,16.73,0,0,1,361.86,760.44Z"/><path class="cls-1" d="M592.74,269.93a20.74,20.74,0,1,0-16.27-2.06l-37.9,118.72,3.83,1.22,37.74-118.23A20.57,20.57,0,0,0,592.74,269.93Zm-13.82-5.29A16.71,16.71,0,1,1,603,245.38a16.7,16.7,0,0,1-11.42,20.69A16.6,16.6,0,0,1,578.91,264.64Z"/><path class="cls-1" d="M805.83,492.62a24.62,24.62,0,0,0-44.47,9.57,25,25,0,0,0-.38,3.45l-182.44,3,.07,4,182.54-3a24.62,24.62,0,1,0,44.68-17Zm-24,34.26a20.59,20.59,0,1,1,15.42-3.32A20.47,20.47,0,0,1,781.88,526.89Z"/><path class="cls-1" d="M717.83,346.26a14.12,14.12,0,0,0-2,7.56,13.94,13.94,0,0,0,.93,4.79L550.31,437.48l1.72,3.63,166.52-78.92-.36-.76a14.21,14.21,0,1,0-.36-15.17Zm17.44-1.44a10.2,10.2,0,1,1-7.72-1.15A10.2,10.2,0,0,1,735.27,344.82Z"/><polygon class="cls-1" points="742.77 730.4 726.37 704.91 758.65 686.96 745.16 666.69 749.37 663.89 765.9 688.72 733.55 706.71 747.03 727.66 742.77 730.4"/><rect class="cls-1" x="781.26" y="486.31" width="5.06" height="45.12" transform="matrix(0.62, -0.78, 0.78, 0.62, -102.59, 804.86)"/><path class="cls-1" d="M721.31,363.73c-.87-14.23,8.36-21.18,13.37-22.87l1.62,4.8-.81-2.4.82,2.39c-.44.15-10.8,3.95-10,17.77Z"/><polygon class="cls-1" points="591.29 264.79 568.39 250.06 571.12 245.8 585 254.72 582.71 235.57 606.21 253.12 603.18 257.17 589.14 246.68 591.29 264.79"/><path class="cls-1" d="M376.24,774.21l-4.2-2.82c1.8-2.69,2.37-5.16,1.76-7.57-1.27-4.94-7.16-8-7.21-8.06l-8.87-4.58,25.33-.5-11.19-9.41,3.26-3.87,21.5,18.08-21.72.43a15.68,15.68,0,0,1,3.8,6.63C379.69,766.36,378.87,770.3,376.24,774.21Z"/><rect class="cls-1" x="213.37" y="668.96" width="5.06" height="45.32" transform="translate(-276.76 160.36) rotate(-25.5)"/><path class="cls-1" d="M202.66,489.32c-11.22-25.51,15.85-44.73,16.12-44.92l2.89,4.15a49.44,49.44,0,0,0-11,11.42c-6.2,9.1-7.34,18.29-3.37,27.3Z"/><path class="cls-1" d="M317.47,233.92,315,232.66c-10.88-5.57-30.43-13.19-36.58-9.91a3,3,0,0,0-1.63,2.58l-5-.6a8,8,0,0,1,4.28-6.45c9.08-4.84,31,4.91,38.79,8.65l8.51-21.06,4.69,1.9Z"/><path class="cls-1" d="M412.54,225.42c-.61-3.6-.92-7.55,1.48-9.46s5.12-.6,7.43.35a14,14,0,0,0,2.75.94,8.4,8.4,0,0,0,.18-3.05c-.28-4.49,0-7.3,2.23-8.35s4.3.77,6.22,2.57c.95.89,2.9,2.73,3.75,2.73h0c.06,0,.21-.11.4-.32,2.28-2.67,4.77-4,7.39-4.07a8,8,0,0,1,5.77,2.51l-3.78,3.37,1.89-1.68-1.86,1.72a3,3,0,0,0-1.94-.85h-.06c-1.35,0-2.68,1.27-3.55,2.3a5.54,5.54,0,0,1-4,2.09c-3,.14-5.5-2.2-7.52-4.09h0c0,.49,0,1.08.07,1.78.15,2.45.09,5.9-2.28,7.58s-5.31.49-7.65-.48a19.12,19.12,0,0,0-2.27-.84,14.75,14.75,0,0,0,.3,4.42Z"/><path class="cls-2" d="M146.74,585.62a25,25,0,1,0,3.7,35.17A24.89,24.89,0,0,0,146.74,585.62Z"/><path class="cls-2" d="M229.38,359.51a25,25,0,1,0,3.13,49.71,25,25,0,0,0-3.13-49.71Z"/><path class="cls-2" d="M512,53a30.76,30.76,0,1,0,25.7,13.77A30.59,30.59,0,0,0,512,53Z"/><path class="cls-2" d="M336.15,176.37a15.24,15.24,0,1,0-6.76-9.5A15.13,15.13,0,0,0,336.15,176.37Z"/><path class="cls-2" d="M763,163a45,45,0,1,0-45-45A45.05,45.05,0,0,0,763,163Z"/><path class="cls-2" d="M134.11,172.22a30.77,30.77,0,1,0,10.77-60.59,31.13,31.13,0,0,0-5.45-.48,30.77,30.77,0,0,0-5.32,61.07Z"/><path class="cls-2" d="M222,837a41,41,0,1,0,41,41A41,41,0,0,0,222,837Z"/><path class="cls-2" d="M798.69,598.4a25,25,0,1,0,30,18.53A25,25,0,0,0,798.69,598.4Z"/><path class="cls-2" d="M771.38,833.47a31,31,0,1,0,17,40.42A31,31,0,0,0,771.38,833.47Z"/><path class="cls-2" d="M921.21,365.25a24.77,24.77,0,0,0-15.12-5.14,25.31,25.31,0,0,0-3.34.22,25,25,0,1,0,18.46,4.92Z"/><path class="cls-3" d="M562.49,418.67l172.65-258a51.07,51.07,0,1,0-4.83-3.58L557.51,415.33ZM718,118a45,45,0,1,1,45,45A45.05,45.05,0,0,1,718,118Z"/><path class="cls-3" d="M251.59,841.52l173.9-259.85-5-3.34L246.7,838a47.14,47.14,0,1,0,4.89,3.48ZM222,919a41,41,0,1,1,41-41A41,41,0,0,1,222,919Z"/><rect class="cls-3" x="154.9" y="548.24" width="312.85" height="6" transform="translate(-149.13 116.77) rotate(-17.21)"/><path class="cls-3" d="M152.52,581a31,31,0,1,0,4.58,43.61h0A31,31,0,0,0,152.52,581Zm-.08,39.83a25,25,0,1,1-3.7-35.17A25,25,0,0,1,152.44,620.79Z"/><path class="cls-3" d="M474.74,516.12,411,820.51a37.15,37.15,0,1,0,11.6,2.85,37.55,37.55,0,0,0-5.67-1.89l63.66-304.12ZM420.28,828.88a30.91,30.91,0,1,1-12.17-2.5A30.91,30.91,0,0,1,420.28,828.88Z"/><path class="cls-3" d="M773.64,827.92a36.76,36.76,0,0,0-28.32.14A37.46,37.46,0,0,0,740,830.8L566.24,573.12l-5,3.36L735.21,834.38a37,37,0,1,0,38.43-6.47Zm14.71,46a31,31,0,1,1-17-40.42A30.8,30.8,0,0,1,788.36,873.89Z"/><path class="cls-3" d="M924.86,360.49a30.95,30.95,0,0,0-49.6,27.79l-294.12,100,1.93,5.68,293.4-99.74A31,31,0,0,0,906,416a31.5,31.5,0,0,0,4.14-.28,31,31,0,0,0,14.74-55.27Zm1,39.75a25,25,0,1,1-23.1-39.91,25.31,25.31,0,0,1,3.34-.22,25,25,0,0,1,19.77,40.13Z"/><path class="cls-3" d="M797.3,592.57a30.84,30.84,0,0,0-18.72,13.14L604.2,540.6l-2.1,5.62,173.67,64.84a30.94,30.94,0,1,0,21.53-18.5ZM810.19,647a25,25,0,1,1,18.53-30A25,25,0,0,1,810.19,647Z"/><path class="cls-3" d="M260.07,380.56a31,31,0,1,0-6.78,23.54l166.5,83.18,2.68-5.37L256.66,399.07A30.72,30.72,0,0,0,260.07,380.56Zm-11,19.19a25,25,0,1,1-22.88-40,24.94,24.94,0,0,1,27.91,21.61A24.79,24.79,0,0,1,249.1,399.75Z"/><path class="cls-3" d="M491.74,53.12a36.77,36.77,0,0,0,13,66.69,37.32,37.32,0,0,0,5.14.67L509,393l6,0,.87-272.67a36.77,36.77,0,1,0-24.13-67.22ZM542.2,89.89a30.76,30.76,0,1,1-4.5-23.12A30.57,30.57,0,0,1,542.2,89.89Z"/><path class="cls-3" d="M133.06,178.13a37.25,37.25,0,0,0,6.51.58,36.51,36.51,0,0,0,21-6.63,37.33,37.33,0,0,0,3.86-3.11L420.76,457l4.48-4L168.5,164.54a36.79,36.79,0,1,0-35.44,13.58ZM109.2,136.54a30.79,30.79,0,0,1,30.23-25.39,31.13,31.13,0,0,1,5.45.48,30.77,30.77,0,1,1-35.68,24.91Z"/><path class="cls-3" d="M333,181.45a21.09,21.09,0,0,0,11.23,3.25,20.82,20.82,0,0,0,7.17-1.25l112.9,250.84,5.47-2.46-113-251-1.15.52a21.22,21.22,0,1,0-22.67.09Zm-1.64-26.09a15.24,15.24,0,1,1-1.94,11.5A15.24,15.24,0,0,1,331.32,155.37Z"/><path class="cls-4" d="M401.69,426.59l94.42,44.66V655l-94.42-44.66V426.59ZM544.6,373,406.22,422.2l93.58,44.94,138-49.48ZM542,457.08V569.51l98.25,38.28v-186Z"/><polyline class="cls-5" points="716 123 747 97 779 142 811 116"/><line class="cls-5" x1="536.87" y1="60.56" x2="493.86" y2="112.44"/><path class="cls-5" d="M329,155s6,19,30,18"/><path class="cls-5" d="M148,109s-18,15-9,29-4,35-4,35"/><polyline class="cls-5" points="241 359.51 216 384 244 385 222.33 409.43"/><polyline class="cls-5" points="905 357 895 373 906 376 901 393 916 393 904 413"/><path class="cls-5" d="M779,629l21-24v33s11.4-21.31,29-9"/><line class="cls-5" x1="729" y1="878" x2="790.66" y2="850.06"/><path class="cls-5" d="M375,850s26,39,62,24"/><path class="cls-5" d="M184,858h38s-6,67,16,61"/><path class="cls-5" d="M123,580s-7,6,2,14-21,19,2,18-11,22.1,16,18"/></svg>