<svg id="Layer_1" data-name="Layer 1" xmlns="http://www.w3.org/2000/svg" xmlns:xlink="http://www.w3.org/1999/xlink" viewBox="0 0 1000 1000"><defs><style>.cls-1{fill:url(#linear-gradient);}.cls-2{fill:url(#linear-gradient-2);}.cls-3{fill:url(#linear-gradient-3);}.cls-4{fill:url(#linear-gradient-4);}.cls-5{fill:url(#linear-gradient-5);}.cls-6{fill:url(#linear-gradient-6);}.cls-7{fill:url(#linear-gradient-7);}.cls-8{fill:url(#linear-gradient-8);}.cls-9{fill:url(#linear-gradient-9);}.cls-10{fill:url(#linear-gradient-10);}.cls-11{fill:url(#linear-gradient-11);}.cls-12{fill:url(#linear-gradient-12);}.cls-13{fill:url(#linear-gradient-13);}.cls-14{fill:url(#linear-gradient-14);}.cls-15{fill:url(#linear-gradient-15);}.cls-16{fill:url(#linear-gradient-16);}.cls-17{fill:url(#linear-gradient-17);}.cls-18{fill:url(#linear-gradient-18);}.cls-19{fill:url(#linear-gradient-19);}.cls-20{fill:url(#linear-gradient-20);}.cls-21{fill:url(#linear-gradient-21);}.cls-22{fill:url(#linear-gradient-22);}.cls-23{fill:url(#linear-gradient-23);}.cls-24{fill:url(#linear-gradient-24);}.cls-25{fill:url(#linear-gradient-25);}.cls-26{fill:url(#linear-gradient-26);}.cls-27{fill:url(#linear-gradient-27);}.cls-28{fill:url(#linear-gradient-28);}.cls-29{fill:url(#linear-gradient-29);}.cls-30{fill:url(#linear-gradient-30);}.cls-31{fill:url(#linear-gradient-31);}.cls-32{fill:url(#linear-gradient-32);}.cls-33{fill:url(#linear-gradient-33);}.cls-34{fill:url(#linear-gradient-34);}.cls-35{fill:#222a3f;}.cls-35,.cls-41{stroke:#89c973;stroke-width:3px;}.cls-35,.cls-40,.cls-41{stroke-miterlimit:10;}.cls-36,.cls-38{opacity:0.4;}.cls-36{fill:url(#linear-gradient-35);}.cls-37{fill:url(#linear-gradient-36);}.cls-38{fill:url(#linear-gradient-37);}.cls-39{opacity:0.2;fill:url(#linear-gradient-38);}.cls-40{fill:#32374b;stroke:#32374b;}.cls-41{fill:url(#radial-gradient);}.cls-42{isolation:isolate;}.cls-43{fill:#88c773;}.cls-44{fill:#e8e7e7;}</style><linearGradient id="linear-gradient" x1="587.38" y1="694.53" x2="713.29" y2="694.53" gradientUnits="userSpaceOnUse"><stop offset="0" stop-color="#222a3f"/><stop offset="0.05" stop-color="#334548"/><stop offset="0.13" stop-color="#4a6853"/><stop offset="0.21" stop-color="#5e865d"/><stop offset="0.31" stop-color="#6e9f65"/><stop offset="0.41" stop-color="#7ab26b"/><stop offset="0.54" stop-color="#83bf70"/><stop offset="0.69" stop-color="#88c772"/><stop offset="1" stop-color="#89c973"/></linearGradient><linearGradient id="linear-gradient-2" x1="586.09" y1="694.53" x2="714.28" y2="694.53" xlink:href="#linear-gradient"/><linearGradient id="linear-gradient-3" x1="189" y1="711.58" x2="480.78" y2="711.58" xlink:href="#linear-gradient"/><linearGradient id="linear-gradient-4" x1="277.53" y1="731.7" x2="569.3" y2="731.7" xlink:href="#linear-gradient"/><linearGradient id="linear-gradient-5" x1="307.71" y1="753.83" x2="599.48" y2="753.83" xlink:href="#linear-gradient"/><linearGradient id="linear-gradient-6" x1="263.44" y1="772.95" x2="555.22" y2="772.95" xlink:href="#linear-gradient"/><linearGradient id="linear-gradient-7" x1="792.63" y1="705.54" x2="500.86" y2="705.54" xlink:href="#linear-gradient"/><linearGradient id="linear-gradient-8" x1="881.16" y1="725.66" x2="589.39" y2="725.66" xlink:href="#linear-gradient"/><linearGradient id="linear-gradient-9" x1="911.34" y1="747.8" x2="619.57" y2="747.8" xlink:href="#linear-gradient"/><linearGradient id="linear-gradient-10" x1="867.08" y1="766.91" x2="575.3" y2="766.91" xlink:href="#linear-gradient"/><linearGradient id="linear-gradient-11" x1="404.99" y1="696.42" x2="534.6" y2="696.42" xlink:href="#linear-gradient"/><linearGradient id="linear-gradient-12" x1="403.67" y1="696.42" x2="535.92" y2="696.42" xlink:href="#linear-gradient"/><linearGradient id="linear-gradient-13" x1="537.43" y1="684.48" x2="672.77" y2="684.48" xlink:href="#linear-gradient"/><linearGradient id="linear-gradient-14" x1="536.05" y1="684.48" x2="674.15" y2="684.48" xlink:href="#linear-gradient"/><linearGradient id="linear-gradient-15" x1="555.11" y1="717.47" x2="650.36" y2="717.47" xlink:href="#linear-gradient"/><linearGradient id="linear-gradient-16" x1="554.14" y1="717.47" x2="651.11" y2="717.47" xlink:href="#linear-gradient"/><linearGradient id="linear-gradient-17" x1="501.32" y1="707.9" x2="606.93" y2="707.9" xlink:href="#linear-gradient"/><linearGradient id="linear-gradient-18" x1="500.25" y1="707.9" x2="608.01" y2="707.9" xlink:href="#linear-gradient"/><linearGradient id="linear-gradient-19" x1="770.4" y1="731.22" x2="587.95" y2="731.22" xlink:href="#linear-gradient"/><linearGradient id="linear-gradient-20" x1="772.26" y1="768.08" x2="644.42" y2="768.08" xlink:href="#linear-gradient"/><linearGradient id="linear-gradient-21" x1="721.21" y1="763.98" x2="622.39" y2="763.98" xlink:href="#linear-gradient"/><linearGradient id="linear-gradient-22" x1="722.22" y1="763.98" x2="621.39" y2="763.98" xlink:href="#linear-gradient"/><linearGradient id="linear-gradient-23" x1="739.05" y1="808.12" x2="615.95" y2="808.12" xlink:href="#linear-gradient"/><linearGradient id="linear-gradient-24" x1="740.3" y1="808.12" x2="614.7" y2="808.12" xlink:href="#linear-gradient"/><linearGradient id="linear-gradient-25" x1="685.24" y1="799.67" x2="570.53" y2="799.67" xlink:href="#linear-gradient"/><linearGradient id="linear-gradient-26" x1="686.41" y1="799.67" x2="569.37" y2="799.67" xlink:href="#linear-gradient"/><linearGradient id="linear-gradient-27" x1="377.32" y1="686.9" x2="482.93" y2="686.9" xlink:href="#linear-gradient"/><linearGradient id="linear-gradient-28" x1="376.25" y1="686.9" x2="484.01" y2="686.9" xlink:href="#linear-gradient"/><linearGradient id="linear-gradient-29" x1="561.24" y1="778.67" x2="446.53" y2="778.67" xlink:href="#linear-gradient"/><linearGradient id="linear-gradient-30" x1="562.41" y1="778.67" x2="445.37" y2="778.67" xlink:href="#linear-gradient"/><linearGradient id="linear-gradient-31" x1="648.11" y1="800.04" x2="542.2" y2="800.04" xlink:href="#linear-gradient"/><linearGradient id="linear-gradient-32" x1="649.18" y1="800.04" x2="541.13" y2="800.04" xlink:href="#linear-gradient"/><linearGradient id="linear-gradient-33" x1="588.93" y1="780.75" x2="500.41" y2="780.75" xlink:href="#linear-gradient"/><linearGradient id="linear-gradient-34" x1="589.83" y1="780.75" x2="499.51" y2="780.75" xlink:href="#linear-gradient"/><linearGradient id="linear-gradient-35" x1="559.8" y1="539.75" x2="552.94" y2="737.22" gradientUnits="userSpaceOnUse"><stop offset="0" stop-color="#222a3f"/><stop offset="0.17" stop-color="#242e40"/><stop offset="0.33" stop-color="#2c3944"/><stop offset="0.48" stop-color="#384c4a"/><stop offset="0.63" stop-color="#496753"/><stop offset="0.78" stop-color="#5f895e"/><stop offset="0.93" stop-color="#7ab26c"/><stop offset="1" stop-color="#89c973"/></linearGradient><linearGradient id="linear-gradient-36" x1="-0.05" y1="277.17" x2="815.25" y2="277.17" gradientUnits="userSpaceOnUse"><stop offset="0" stop-color="#222a3f"/><stop offset="0.18" stop-color="#242d40"/><stop offset="0.34" stop-color="#2b3844"/><stop offset="0.49" stop-color="#374a49"/><stop offset="0.63" stop-color="#476352"/><stop offset="0.77" stop-color="#5c835c"/><stop offset="0.91" stop-color="#75aa69"/><stop offset="1" stop-color="#89c973"/></linearGradient><linearGradient id="linear-gradient-37" x1="-0.05" y1="310.99" x2="815.25" y2="310.99" xlink:href="#linear-gradient-36"/><linearGradient id="linear-gradient-38" x1="-0.05" y1="343.51" x2="815.25" y2="343.51" xlink:href="#linear-gradient-36"/><radialGradient id="radial-gradient" cx="556.72" cy="606.14" r="151.5" gradientUnits="userSpaceOnUse"><stop offset="0" stop-color="#32374b"/><stop offset="0.52" stop-color="#2d3347"/><stop offset="1" stop-color="#222a3f"/></radialGradient></defs><title>Untitled-3</title><line class="cls-1" x1="713.29" y1="769.89" x2="587.38" y2="619.16"/><path class="cls-2" d="M713.29,771.15a1.29,1.29,0,0,1-1-.46L586.38,620a1.24,1.24,0,0,1,.18-1.77,1.3,1.3,0,0,1,1.8.18L714.28,769.09c-39.72-45.06.37,1.33-.18,1.77A1.29,1.29,0,0,1,713.29,771.15Z"/><path class="cls-3" d="M478.92,713.44H190.86a1.86,1.86,0,0,1,0-3.72H478.92a1.86,1.86,0,1,1,0,3.72Z"/><path class="cls-4" d="M567.45,733.56H279.39a1.86,1.86,0,0,1,0-3.72H567.45a1.86,1.86,0,0,1,0,3.72Z"/><path class="cls-5" d="M597.63,755.69H309.57a1.86,1.86,0,0,1,0-3.72H597.63a1.86,1.86,0,0,1,0,3.72Z"/><path class="cls-6" d="M553.36,774.8H265.3a1.86,1.86,0,0,1,0-3.72H553.36a1.86,1.86,0,1,1,0,3.72Z"/><path class="cls-7" d="M790.78,707.4H502.72a1.86,1.86,0,0,1,0-3.72H790.78a1.86,1.86,0,1,1,0,3.72Z"/><path class="cls-8" d="M879.3,727.52H591.24a1.86,1.86,0,1,1,0-3.72H879.3a1.86,1.86,0,0,1,0,3.72Z"/><path class="cls-9" d="M909.48,749.65H621.42a1.86,1.86,0,0,1,0-3.72H909.48a1.86,1.86,0,1,1,0,3.72Z"/><path class="cls-10" d="M865.22,768.77H577.16a1.86,1.86,0,0,1,0-3.72H865.22a1.86,1.86,0,1,1,0,3.72Z"/><line class="cls-11" x1="534.6" y1="778.69" x2="404.99" y2="614.15"/><path class="cls-12" d="M534.6,780.06a1.3,1.3,0,0,1-1-.5L404,615a1.41,1.41,0,0,1,.19-1.93,1.29,1.29,0,0,1,1.86.19L535.63,777.82a1.41,1.41,0,0,1-.19,1.93A1.28,1.28,0,0,1,534.6,780.06Z"/><line class="cls-13" x1="672.77" y1="768.99" x2="537.43" y2="599.97"/><path class="cls-14" d="M672.77,770.4c-.4,0-34-41.2-34.28-41.54l-102.13-128a1.43,1.43,0,0,1,.19-2,1.36,1.36,0,0,1,1.94.2l135.34,169a1.43,1.43,0,0,1-.19,2A1.35,1.35,0,0,1,672.77,770.4Z"/><line class="cls-15" x1="650.36" y1="773.92" x2="555.11" y2="661.01"/><path class="cls-16" d="M650.36,774.86a1,1,0,0,1-.75-.34L554.36,661.61a.92.92,0,0,1,.14-1.32,1,1,0,0,1,1.36.13l95.25,112.91c.34.4-48.28-54.36-.14,1.32C651.12,774.82,650.58,774.86,650.36,774.86Z"/><line class="cls-17" x1="606.93" y1="773.76" x2="501.32" y2="642.04"/><path class="cls-18" d="M606.94,774.86c-.31,0-44.31-55.22-.83-.4L500.49,642.74a1.11,1.11,0,0,1,.15-1.54,1.06,1.06,0,0,1,1.51.15L607.77,773.07a1.11,1.11,0,0,1-.15,1.54A1.06,1.06,0,0,1,606.94,774.86Z"/><line class="cls-19" x1="770.4" y1="842.68" x2="587.95" y2="619.76"/><path class="cls-20" d="M771,844.54a1.28,1.28,0,0,1-1-.46L644.71,693.68a1.24,1.24,0,0,1,.18-1.76,1.29,1.29,0,0,1,1.8.18L772,842.49a1.24,1.24,0,0,1-.18,1.76A1.28,1.28,0,0,1,771,844.54Z"/><line class="cls-21" x1="721.21" y1="824.19" x2="622.39" y2="703.78"/><path class="cls-22" d="M721.21,825.19a1,1,0,0,1-.78-.37L621.61,704.41a1,1,0,0,1,1.56-1.27L722,823.55a1,1,0,0,1-.78,1.64Z"/><line class="cls-23" x1="739.05" y1="885.42" x2="615.95" y2="730.82"/><path class="cls-24" d="M739,886.71a1.24,1.24,0,0,1-1-.47L615,731.63a1.31,1.31,0,0,1,.18-1.81,1.23,1.23,0,0,1,1.76.18L740,884.6a1.31,1.31,0,0,1-.18,1.81A1.23,1.23,0,0,1,739,886.71Z"/><line class="cls-25" x1="685.24" y1="866.46" x2="570.53" y2="732.87"/><path class="cls-26" d="M685.24,867.58a1.19,1.19,0,0,1-.9-.41L569.63,733.58a1.08,1.08,0,0,1,.16-1.57,1.21,1.21,0,0,1,1.64.16l114.7,133.59a1.08,1.08,0,0,1-.16,1.57A1.2,1.2,0,0,1,685.24,867.58Z"/><line class="cls-27" x1="482.93" y1="752.76" x2="377.32" y2="621.04"/><path class="cls-28" d="M482.94,753.86c-.31,0-44.31-55.22-.83-.4L376.49,621.74a1.11,1.11,0,0,1,.15-1.54,1.06,1.06,0,0,1,1.51.15L483.77,752.07a1.11,1.11,0,0,1-.15,1.54A1.06,1.06,0,0,1,482.94,753.86Z"/><line class="cls-29" x1="561.24" y1="845.46" x2="446.53" y2="711.87"/><path class="cls-30" d="M561.24,846.58a1.19,1.19,0,0,1-.9-.41L445.63,712.58a1.08,1.08,0,0,1,.16-1.57,1.21,1.21,0,0,1,1.64.16l114.7,133.59a1.08,1.08,0,0,1-.16,1.57A1.2,1.2,0,0,1,561.24,846.58Z"/><line class="cls-31" x1="648.11" y1="866.47" x2="542.2" y2="733.61"/><path class="cls-32" d="M648.11,867.58a1.06,1.06,0,0,1-.84-.41L541.37,734.31a1.13,1.13,0,0,1,.15-1.56,1.06,1.06,0,0,1,1.52.16l105.9,132.86a1.13,1.13,0,0,1-.15,1.56A1.06,1.06,0,0,1,648.11,867.58Z"/><line class="cls-33" x1="588.93" y1="838.45" x2="500.41" y2="723.06"/><path class="cls-34" d="M588.93,839.41a.88.88,0,0,1-.7-.35L499.71,723.67a1,1,0,0,1,.13-1.35.86.86,0,0,1,1.27.14l88.52,115.39a1,1,0,0,1-.13,1.35A.86.86,0,0,1,588.93,839.41Z"/><polygon class="cls-35" points="460.84 793.22 763.96 793.22 652.5 674.09 352.33 675.27 460.84 793.22"/><polygon class="cls-36" points="763.96 793.22 763 792.19 763 507 763 391 653 391 352 391 352 676 353 676 460.84 793.22 561 793.22 561 794 763 794 763 793.22 763.96 793.22"/><path class="cls-37" d="M811.28,261.31a12.18,12.18,0,0,0-8.84-3.24,12.33,12.33,0,0,0-3.44.64l-146.78-135-3.27-3L487.82,219,330.59,138.78l-5-2.55L167.25,411.76,9.58,187.87l-9.63,6.79,168.31,239,162-281.83,158.1,80.63,159.18-97.1L791,267.39a12.34,12.34,0,0,0-.35,3.48,12.3,12.3,0,1,0,20.61-9.56Z"/><path class="cls-38" d="M811.28,295.13a12.18,12.18,0,0,0-8.84-3.24,12.33,12.33,0,0,0-3.44.64l-146.78-135-3.27-3L487.82,252.79,330.59,172.6l-5-2.55L167.25,445.58,9.58,221.69l-9.63,6.79,168.31,239,162-281.83,158.1,80.63,159.18-97.1L791,301.21a12.34,12.34,0,0,0-.35,3.48,12.3,12.3,0,1,0,20.61-9.56Z"/><path class="cls-39" d="M811.28,327.65a12.18,12.18,0,0,0-8.84-3.24,12.33,12.33,0,0,0-3.44.64L652.22,190,649,187,487.82,285.31,330.59,205.12l-5-2.55L167.25,478.1,9.58,254.21-.05,261,168.26,500l162-281.83,158.1,80.63,159.18-97.1L791,333.73a12.34,12.34,0,0,0-.35,3.48,12.3,12.3,0,1,0,20.61-9.56Z"/><line class="cls-40" x1="803.5" y1="283" x2="803.5" y2="722.3"/><line class="cls-40" x1="330" y1="154" x2="330" y2="728"/><polygon class="cls-41" points="459.42 665.7 762.53 665.7 651.08 546.58 350.91 547.76 459.42 665.7"/><g class="cls-42"><path class="cls-43" d="M530.12,591.21l.21-.87c-.65,2.68.25,5.78,2.94,9.06,8.16,10,29.67,17.91,48,17.74,1.18,0,2.32-.06,3.41-.13,10.28-.72,16.72-4.24,17.92-9.17l-.21.87c-1.2,4.92-7.64,8.45-17.92,9.17-1.09.08-2.23.12-3.41.13-18.3.17-39.81-7.79-48-17.74C530.37,597,529.47,593.89,530.12,591.21Z"/><path class="cls-43" d="M525,590l.21-.87c1.37-5.63,8.73-9.65,20.47-10.48q1.88-.13,3.91-.15l-.21.87q-2,0-3.91.15C533.69,580.3,526.33,584.33,525,590Z"/><path class="cls-43" d="M549.35,579.33c20.9-.2,45.49,8.9,54.81,20.27,8.71,10.64,1,19.57-17.12,20.83q-1.88.13-3.9.15c-20.91.19-45.49-8.9-54.81-20.28-8.72-10.64-1-19.56,17.11-20.83Q547.32,579.35,549.35,579.33Zm50.07,20.32c-8.15-10-29.67-17.91-48-17.74-1.18,0-2.32.06-3.41.13-15.87,1.11-22.6,8.92-15,18.23,8.16,10,29.67,17.91,48,17.74,1.18,0,2.32-.06,3.41-.13,15.88-1.11,22.6-8.92,15-18.23"/><path class="cls-43" d="M607.73,609.08l-.21.87c.74-3.06-.29-6.6-3.36-10.35-9.32-11.37-33.91-20.47-54.81-20.27l.21-.87c20.9-.2,45.49,8.9,54.81,20.27C607.44,602.48,608.48,606,607.73,609.08Z"/></g><g class="cls-42"><polygon class="cls-43" points="568.95 604.26 569.16 603.39 575 603.62 574.79 604.5 568.95 604.26"/><polygon class="cls-44" points="559.32 601.28 559.54 600.41 571.06 600.87 570.84 601.74 559.32 601.28"/><polygon class="cls-43" points="563.54 595.65 563.75 594.78 575.26 595.24 575.05 596.11 563.54 595.65"/><polygon class="cls-44" points="562.53 588.97 568.36 589.22 563.54 595.65 561.65 598.18 559.32 601.28 570.84 601.74 576.68 601.97 584.82 602.3 586.52 604.97 574.79 604.5 568.95 604.26 557.43 603.8 557.04 603.78 551.58 603.56 555.8 597.94 557.69 595.42 562.53 588.97"/><polygon class="cls-43" points="564.12 610.7 564.33 609.82 569.16 603.39 568.95 604.26 564.12 610.7"/><polygon class="cls-43" points="564.12 610.7 568.95 604.26 574.79 604.5 569.95 610.94 564.12 610.7"/><polygon class="cls-43" points="557.69 595.42 555.8 597.94 547.67 597.61 545.95 594.95 557.69 595.42"/><polygon class="cls-44" points="551.58 603.56 551.79 602.68 556.01 597.07 555.8 597.94 551.58 603.56"/><polygon class="cls-44" points="570.84 601.74 571.06 600.87 576.9 601.1 576.68 601.97 570.84 601.74"/><polygon class="cls-44" points="584.82 602.3 585.03 601.42 586.73 604.1 586.52 604.97 584.82 602.3"/><polygon class="cls-44" points="576.68 601.97 576.9 601.1 585.03 601.42 584.82 602.3 576.68 601.97"/><polygon class="cls-43" points="545.95 594.95 546.16 594.08 557.9 594.54 557.69 595.42 545.95 594.95"/><polygon class="cls-44" points="555.8 597.94 556.01 597.07 557.9 594.54 557.69 595.42 555.8 597.94"/><polygon class="cls-43" points="570.84 601.74 571.06 600.87 573.38 597.77 573.17 598.64 570.84 601.74"/><polygon class="cls-43" points="561.65 598.18 561.86 597.3 563.75 594.78 563.54 595.65 561.65 598.18"/><polygon class="cls-43" points="575.05 596.11 575.26 595.24 575.65 595.25 575.44 596.13 575.05 596.11"/><polygon class="cls-43" points="575.44 596.13 580.9 596.35 576.68 601.97 570.84 601.74 573.17 598.64 561.65 598.18 563.54 595.65 575.05 596.11 575.44 596.13"/><polygon class="cls-43" points="575.44 596.13 575.65 595.25 581.12 595.48 580.9 596.35 575.44 596.13"/><polygon class="cls-44" points="557.69 595.42 557.9 594.54 562.74 588.1 562.53 588.97 557.69 595.42"/><polygon class="cls-44" points="562.53 588.97 562.74 588.1 568.58 588.34 568.36 589.22 562.53 588.97"/></g></svg>