<svg xmlns:cc="http://creativecommons.org/ns#" xmlns:dc="http://purl.org/dc/elements/1.1/" xmlns:inkscape="http://www.inkscape.org/namespaces/inkscape" xmlns:rdf="http://www.w3.org/1999/02/22-rdf-syntax-ns#" xmlns:sodipodi="http://sodipodi.sourceforge.net/DTD/sodipodi-0.dtd" xmlns:svg="http://www.w3.org/2000/svg" xmlns="http://www.w3.org/2000/svg" xmlns:xlink="http://www.w3.org/1999/xlink" version="1.1" id="svg2" inkscape:version="0.91 r13725" sodipodi:docname="Reddit.svg" x="0px" y="0px" viewBox="0 0 139.9 140.1" style="enable-background:new 0 0 139.9 140.1;" xml:space="preserve">
 <style type="text/css">
     .st0{fill:#FFFFFF;}
     .st1{fill:#FFFFFF;stroke:#FDFDFD;stroke-width:0;stroke-linecap:round;stroke-linejoin:round;}
 </style>
 <sodipodi:namedview bordercolor="#666666" borderopacity="1.0" fit-margin-bottom="0" fit-margin-left="0" fit-margin-right="0" fit-margin-top="0" id="base" inkscape:bbox-nodes="false" inkscape:bbox-paths="false" inkscape:current-layer="layer3" inkscape:cx="154.12861" inkscape:cy="34.39108" inkscape:document-units="px" inkscape:pageopacity="0.0" inkscape:pageshadow="2" inkscape:snap-bbox="true" inkscape:snap-object-midpoints="false" inkscape:snap-others="true" inkscape:snap-page="false" inkscape:snap-to-guides="true" inkscape:window-height="705" inkscape:window-maximized="1" inkscape:window-width="1366" inkscape:window-x="-8" inkscape:window-y="-8" inkscape:zoom="1.4" pagecolor="#ffffff" showgrid="false" showguides="true">
  <inkscape:grid id="grid4193" originx="-283.46284" originy="-538.11441" type="xygrid"/>
</sodipodi:namedview>
<g>
  <path class="st0" d="M83.7,95.2c-6.4,4.4-21,4.4-27.4,0c-1-0.7-2.2-1.2-2.7-1.2c-1.3,0-1.7,1.7-0.7,2.8c1.2,1.4,5.6,3.3,9.5,4.2   c8.3,1.9,18.7,0.3,23.9-3.5c1.1-0.8,1.5-1.5,1.4-2.2C87.5,93.8,85.8,93.8,83.7,95.2z"/>
  <path class="st0" d="M58.2,82.8c4.3-3.5,3.3-10.1-2-12.1c-2-0.7-2.3-0.7-4.5,0C48.6,71.8,47,74,47,77.3c0,2.9,1.2,5,3.6,6.3   C53,85,55.9,84.7,58.2,82.8z"/>
  <path class="st0" d="M88.2,70.7c-2.3-0.7-2.5-0.7-4.5,0c-3.5,1.4-5.4,5-4.4,8.6c0.5,1.9,1.8,3.3,4,4.5c1.9,1,3.6,1,5.9-0.2   c2.5-1.3,3.7-3.3,3.7-6.3C92.9,73.9,91.4,71.7,88.2,70.7z"/>
  <path class="st0" d="M101.5,7.6C88.5,1,73-1.4,58.9,0.9C24.5,6.6,0,35.3,0,70.1c0,22.5,10.3,43.1,28.3,56.4   c11.1,8.2,22.6,12.3,38.1,13.6c2.9,0.2,9.9-0.2,14.8-1c24.7-3.8,46.3-21.6,54.5-44.9C147.7,60.2,133.2,23.5,101.5,7.6z M116.5,72.8   c-0.6,2.1-1.3,3.2-3.1,4.9c-2.2,2.2-2.3,2.3-2.3,5c0,8.9-6.6,17.8-17.3,23.2c-3.4,1.8-6.9,3-11.7,4.1c-2.7,0.6-6.1,0.9-10.8,1.1   c-7.1,0.1-7.5,0.1-13.1-1C41.3,106.7,28.7,95,28.7,82.7c0-2.7-0.1-2.8-2.3-5c-1.8-1.7-2.5-2.8-3.1-4.9c-0.7-2.5-0.7-2.9,0-5.3   c1.9-6.6,8.9-9.6,15.1-6.5l2.4,1.2l2.4-1.5c5.3-3.3,13.1-5.8,20.2-6.5c2.3-0.3,4.4-0.6,4.5-0.7c0.2-0.2,0.4-1,3.2-14.1   c2.4-11.1,2.2-10.7,3.1-11.2c0.5-0.3,2.8,0,8.4,1.1c4.2,0.8,8.1,1.7,8.7,1.9c0.8,0.3,1.2,0.1,2.1-1c4.4-5.4,13.1-2.4,13.1,4.7   c0,5.7-5.8,9.2-10.9,6.6c-2.2-1.1-3.2-2.5-3.6-4.6c-0.2-0.8-0.4-1.5-0.5-1.5c-0.1,0-3.2-0.6-6.8-1.4c-3.6-0.8-6.9-1.4-7.4-1.4   c-0.7,0-1,0.6-1.4,2.9c-0.3,1.6-1,5-1.5,7.4s-1.3,5.9-1.6,7.6l-0.6,3.2l1.5,0.2c0.8,0.1,2.7,0.4,4.2,0.5c5.4,0.5,13.9,3.4,18.6,6.3   l2.5,1.5l2.4-1.2c6.2-3.2,13.2-0.2,15.1,6.5C117.2,69.9,117.2,70.3,116.5,72.8z"/>
  <path class="st1" d="M66.4,140.1c-18.7,0-25.5,0-25.6,0"/>
</g>
</svg>