<svg id="Layer_1" data-name="Layer 1" xmlns="http://www.w3.org/2000/svg" viewBox="0 0 594.05 69.2"><defs><style>.cls-1{fill:#88c773;}.cls-2{fill:#e8e7e7;}.cls-3{fill:#f5f6f7;}</style></defs><title>Untitled-2</title><polygon class="cls-1" points="22.64 69.2 56.99 21.37 48.1 21.32 47.47 21.31 0.05 21.01 0 29.31 41.54 29.57 13.12 69.14 22.64 69.2"/><polygon class="cls-2" points="16.12 39.63 44.54 0.06 35.02 0 0.67 47.83 9.55 47.89 10.19 47.89 57.6 48.2 57.66 39.9 16.12 39.63"/><path class="cls-1" d="M94.9,21.8a6.43,6.43,0,0,0-4.19,1.31,4.42,4.42,0,0,0-1.62,3.64,5.21,5.21,0,0,0,1.19,3.64,7.62,7.62,0,0,0,3.15,2,39.67,39.67,0,0,0,4.28,1.25q2.32.55,4.64,1.34a22.88,22.88,0,0,1,4.28,2,8.47,8.47,0,0,1,3.15,3.39A11.34,11.34,0,0,1,111,45.75a11.79,11.79,0,0,1-4.19,9q-4.19,3.79-11.12,3.79T84.45,55.31a10.9,10.9,0,0,1-4.28-9.2h9.16q.49,5.62,6.42,5.62a6.72,6.72,0,0,0,4.64-1.53,5.18,5.18,0,0,0,1.71-4.06,4.55,4.55,0,0,0-2.26-4,16.9,16.9,0,0,0-5.47-2.2q-3.21-.73-6.45-1.77a12,12,0,0,1-5.5-3.64,10.09,10.09,0,0,1-2.26-6.87,11.44,11.44,0,0,1,4.22-9.29A16.46,16.46,0,0,1,95.24,14.9q6.63,0,10.66,3t4.4,9.19h-9.41a5.8,5.8,0,0,0-1.83-3.88A6,6,0,0,0,94.9,21.8Z"/><path class="cls-1" d="M157.59,24.31h8.25L155.45,58.15h-9.16l-5.8-22.73-5.87,22.73h-9.16L115.06,24.31h8.68L130,50l6.23-25.72h9L151.35,50Z"/><path class="cls-1" d="M180.31,15.69a5.22,5.22,0,1,1-10.45,0,5.22,5.22,0,1,1,10.45,0Zm-9.53,42.46V24.31h8.61V58.15Z"/><path class="cls-1" d="M201.7,50.95h4.09v7.21h-5.44q-5.19,0-8-2.38t-2.81-7.88V31.33h-3.6v-7h3.6V15.94h8.61v8.37h7.58v7h-7.58V47.89a3,3,0,0,0,.79,2.35A4.16,4.16,0,0,0,201.7,50.95Z"/><path class="cls-1" d="M214.77,53.88q-4.64-4.77-4.64-12.65t4.64-12.65a16.06,16.06,0,0,1,12-4.77,17.21,17.21,0,0,1,10.33,3,14.48,14.48,0,0,1,5.56,8.49H233.4q-1.65-4.22-6.6-4.22A7,7,0,0,0,221,33.81a11.83,11.83,0,0,0-2.11,7.42A11.82,11.82,0,0,0,221,48.65a7,7,0,0,0,5.83,2.72q4.89,0,6.6-4.28h9.29A15.23,15.23,0,0,1,237,55.53a16.66,16.66,0,0,1-10.23,3.12A16.06,16.06,0,0,1,214.77,53.88Z"/><path class="cls-1" d="M256.56,12.94V29.38q3.24-5.56,10.51-5.56a12.55,12.55,0,0,1,9.47,3.82q3.67,3.82,3.67,10.6V58.15h-8.55V39.46a8.46,8.46,0,0,0-2-6.08,7.25,7.25,0,0,0-5.5-2.11,7.35,7.35,0,0,0-5.53,2.11,8.37,8.37,0,0,0-2,6.08v18.7h-8.61V12.94Z"/><path class="cls-1" d="M302.14,58.64a16,16,0,0,1-12-4.8q-4.64-4.8-4.64-12.68t4.67-12.62a16.26,16.26,0,0,1,12.1-4.73,16.8,16.8,0,0,1,12.19,4.61q4.77,4.61,4.77,12.31a21,21,0,0,1-.24,3.3H294.25a8,8,0,0,0,2.44,5.32,7.61,7.61,0,0,0,5.44,2,7.12,7.12,0,0,0,6.6-3.67H318a14.86,14.86,0,0,1-5.68,7.88A16.91,16.91,0,0,1,302.14,58.64Zm5.65-25.54a8.08,8.08,0,0,0-5.53-2,7.63,7.63,0,0,0-5.41,2,8.54,8.54,0,0,0-2.6,5.38h16A7.38,7.38,0,0,0,307.79,33.11Z"/><path class="cls-1" d="M328.59,53.82q-4.95-4.83-4.95-12.65t5-12.59a18.6,18.6,0,0,1,24.87,0q5,4.77,5,12.59t-5,12.65A17.36,17.36,0,0,1,341,58.64,17,17,0,0,1,328.59,53.82ZM341,51.37a8.37,8.37,0,0,0,6.2-2.66q2.6-2.66,2.6-7.51t-2.57-7.48a8.36,8.36,0,0,0-6.2-2.63,8.16,8.16,0,0,0-6.14,2.63q-2.51,2.63-2.51,7.52t2.51,7.51A8.12,8.12,0,0,0,341,51.37Z"/><path class="cls-3" d="M393.29,16h4.28V58.15h-4.28L369.65,22.84V58.15h-4.28V16h4.28l23.64,35.31Z"/><path class="cls-3" d="M420.66,58.77A15.17,15.17,0,0,1,409.05,54q-4.46-4.77-4.46-12.56t4.55-12.52a15.63,15.63,0,0,1,11.79-4.73q7.24,0,11.52,4.46a15.36,15.36,0,0,1,4.28,11.06,21,21,0,0,1-.24,3.3H409q.24,5.74,3.48,9a11,11,0,0,0,8.19,3.3,11.76,11.76,0,0,0,6.57-1.77A9.18,9.18,0,0,0,431,48.93h4.58A15.7,15.7,0,0,1,430.19,56,15.51,15.51,0,0,1,420.66,58.77Zm11.67-19.12A11.73,11.73,0,0,0,429,30.88a12,12,0,0,0-16.43-.06A12.83,12.83,0,0,0,409,39.64Z"/><path class="cls-3" d="M458.54,28.16h-9.23V50.27a5,5,0,0,0,1,3.51,4.77,4.77,0,0,0,3.48,1h4.77v3.36h-5.68q-7.82,0-7.82-7.88V28.16h-4.64V24.8H445V16.43h4.28V24.8h9.23Z"/><path class="cls-3" d="M504.06,24.8h4.52L497.95,58.15h-4.34l-8.31-28.1L477,58.15h-4.34L461.9,24.8h4.52l8.37,28.78L483.4,24.8h4.28l8.06,28.72Z"/><path class="cls-3" d="M526.81,58.77A15.3,15.3,0,0,1,515.14,54q-4.49-4.77-4.49-12.49T515.42,29a17.2,17.2,0,0,1,23.83,0Q544,33.78,544,41.45a16.58,16.58,0,0,1-5,12.49A16.91,16.91,0,0,1,526.81,58.77Zm0-3.42a12.37,12.37,0,0,0,9-3.73q3.79-3.73,3.79-10.17t-3.6-10.14a11.82,11.82,0,0,0-8.8-3.7,11.48,11.48,0,0,0-8.68,3.67Q515,34.94,515,41.48t3.3,10.2A10.9,10.9,0,0,0,526.78,55.34Z"/><path class="cls-3" d="M554.09,24.8v5.5q2.75-6.11,10.33-6.11v4.46H563.2q-4.4,0-6.75,2.38t-2.35,8.19V58.15h-4.28V24.8Z"/><path class="cls-3" d="M574.44,58.15h-4.28V12.94h4.28V39.7L587.88,24.8H594l-16.19,16.5L594,58.15h-5.87l-13.75-15Z"/></svg>