<svg xmlns="http://www.w3.org/2000/svg" xmlns:xlink="http://www.w3.org/1999/xlink" version="1.1" id="Layer_1" x="0px" y="0px" viewBox="0 0 1024 1024" style="enable-background:new 0 0 1024 1024;" xml:space="preserve">
 <style type="text/css">
     .st0{fill:#FFFFFF;}
 </style>
 <title/>
 <title/>
 <g>
     <path class="st0" d="M807.5,94.1c-49.1-34.8-110.5-62.9-168.7-77.5C519.8-13.2,398.2-0.5,288.2,53.2   c-144.6,70.5-247,204.1-277.8,362.2c-38.6,197.7,42.9,399.8,208.1,516.5c127.7,90.2,294.3,116.9,443,71   c182.9-56.4,317.7-205.8,354.1-392.4C1054.2,413,972.7,210.8,807.5,94.1z M921.5,320.1c-0.3,2.9-51.6,101-159.1,305.1   C612.4,909.9,603.6,926.4,599,930.2c-6,5.1-14.3,6.7-21.6,4.3c-4.1-1.4-22.5-16.4-94.7-77.2l-89.6-75.4l-33.4,28.8   c-18.3,15.8-35.5,30-38.1,31.5c-5.9,3.3-11.6,3.8-18.1,1.6c-6.9-2.3-11.1-6.2-13.7-12.7c-1.1-3.1-9.4-41.5-18.3-85.5l-16.2-79.9   L182,604.1c-67.4-56.9-73.5-62.2-75.5-67.1c-4.1-9.8-0.3-23,7.9-27.7c4.2-2.3,781.5-216.3,785.8-216.2c5.2,0,12,3.6,16.3,8.5   C921,306.5,922.6,312.8,921.5,320.1z"/>
     <path class="st0" d="M301.3,657.3c-0.2,0.6,5.1,27.9,11.8,60.6l12.3,59.6l3.5-2.8c2-1.5,111.7-90.5,243.9-197.8   c132.2-107.4,244.7-198.5,250-202.9c5.3-4.2,9.4-7.7,9.2-7.8c-0.1,0-119.5,65.2-265.2,144.9C421.1,591,301.6,656.7,301.3,657.3z"/>
     <path class="st0" d="M696.2,413.6c37.6-20.5,68.3-37.3,68.2-37.3c-0.3,0-132.3,36.2-293.6,80.5c-161.3,44.3-293.4,81-293.5,81.5   c-0.1,0.4,24.3,21.7,54.4,47.1c30,25.3,55.2,47.2,56,48.5c1.3,2.2,13.9-4.6,170.8-90.2C551.6,492.6,658.5,434.2,696.2,413.6z"/>
     <path class="st0" d="M410.8,739.6l4.9,2.8c2.8,1.4,40.1,32.4,83,68.8c42.9,36.3,78.1,66,78.3,65.8c0.6-0.4,248.6-471,248.3-471.4   c-0.1-0.1-93.4,74.9-207.3,166.8L410.8,739.6z"/>
 </g>
</svg>