<?xml version="1.0" encoding="utf-8"?>
<!-- Generator: Adobe Illustrator 21.1.0, SVG Export Plug-In . SVG Version: 6.00 Build 0)  -->
<svg version="1.1" id="Layer_1" xmlns="http://www.w3.org/2000/svg" xmlns:xlink="http://www.w3.org/1999/xlink" x="0px" y="0px"
	 viewBox="0 0 1298 264" style="enable-background:new 0 0 1298 264;" xml:space="preserve">
<style type="text/css">
	.st0{opacity:5.000000e-02;fill:#88C773;}
</style>
<title>Untitled-2</title>
<path class="st0" d="M1298,143.6l-2.8-4.1l-42.6,29c-1.8-1.5-4.1-2.4-6.5-2.4c-0.3,0-0.6,0-0.8,0l-27-63.2c4.3-3.4,5.1-9.7,1.7-14
	c-3.4-4.3-9.7-5.1-14-1.7c-3.1,2.5-4.5,6.6-3.5,10.4l-91,71.7c-3.1-2.5-7.4-3-10.9-1.1l-58.5-99c3.4-4.4,2.6-10.7-1.8-14
	c-4.4-3.4-10.7-2.6-14,1.8c-2.3,2.9-2.7,6.9-1.2,10.3l-41,26.6l-52.1,39c-3.4-2.4-7.8-2.4-11.2-0.2l-53.7-98.4
	c5.1-2.1,7.6-7.9,5.5-13s-7.9-7.6-13-5.5s-7.6,7.9-5.5,13c0.6,1.6,1.7,2.9,3,4l-61.1,179.7L738.6,43.8l-53.1-30.4
	c1.9-5.2-0.7-10.9-5.9-12.9c-5.2-1.9-10.9,0.7-12.9,5.9c-1.2,3.2-0.7,6.7,1.3,9.5l-48.8,85.3c-3.1-0.7-6.4,0.1-8.8,2.3l-42.7-55.3
	c4.5-3.1,5.7-9.4,2.5-13.9c-3.1-4.5-9.4-5.7-13.9-2.5s-5.7,9.4-2.5,13.9c0.3,0.5,0.7,0.9,1.1,1.3l-62.4,111
	c-1.6,0.1-3.1,0.5-4.5,1.3l-54.7-68l-47.6-45c3.5-4.3,2.9-10.6-1.4-14.1c-4.3-3.5-10.6-2.9-14.1,1.4c-3.5,4.3-2.9,10.6,1.4,14.1
	c0.5,0.4,1,0.7,1.5,1L301.8,244h-0.5L252.9,79.8c4.8-2.7,6.6-8.8,3.9-13.6s-8.8-6.6-13.6-3.9c-3.2,1.8-5.2,5.1-5.2,8.8
	c0,0.1,0,0.2,0,0.3l-43.9,10.6c-2.2-5.1-8.1-7.4-13.2-5.2c-5.1,2.2-7.4,8.1-5.2,13.2c0.5,1.2,1.2,2.2,2.2,3.1l-52.3,73.1
	c-4.9-2.5-10.9-0.5-13.4,4.4c-1.4,2.8-1.4,6.1,0,9l-45.1,26.2c-2.4-5-8.4-7.1-13.4-4.7c-0.7,0.3-1.4,0.8-2,1.3L4.2,131.1L0,133.9
	l48.7,72.8c-1.9,5.2,0.7,10.9,5.9,12.9s10.9-0.7,12.9-5.9c0.3-0.9,0.5-1.8,0.6-2.8l47.5-27.6c4.6,3.1,10.8,1.8,13.9-2.8
	c2.2-3.4,2.2-7.7,0-11.1l52.9-73.8c5.3,1.6,10.9-1.5,12.4-6.8c0.2-0.6,0.3-1.3,0.4-2l44.4-10.7c1.8,3,5.1,4.9,8.6,4.9l48.4,164.7
	c-4.6,3.1-5.8,9.3-2.7,13.9c3.1,4.6,9.3,5.8,13.9,2.7c4.6-3.1,5.8-9.3,2.7-13.9c-0.9-1.4-2.2-2.5-3.7-3.3L378.1,50
	c1.2,0,2.4-0.2,3.5-0.7l48,45.3l54.9,68.2c-2.9,4.7-1.4,10.9,3.3,13.7s10.9,1.4,13.7-3.3c2.9-4.7,1.4-10.9-3.3-13.7
	c-0.2-0.1-0.4-0.2-0.6-0.3l61.5-109.6c0.9,0.3,1.9,0.4,2.8,0.4c0.3,0,0.5,0,0.8,0l44.7,58c-1.7,5.3,1.2,10.9,6.5,12.6
	c5.3,1.7,10.9-1.2,12.6-6.5c1.2-3.8,0.1-7.9-2.9-10.5L672,19.1c3.5,1.6,7.7,1,10.6-1.5l51.9,29.6l57.1,168.4
	c-5.2,2-7.8,7.7-5.8,12.9c2,5.2,7.7,7.8,12.9,5.8s7.8-7.7,5.8-12.9c-0.9-2.3-2.5-4.2-4.7-5.3l61.6-181.3h0.1l55.5,101.8
	c-2.4,5-0.3,11,4.6,13.4c5,2.4,11,0.3,13.4-4.6c1.3-2.8,1.3-6,0-8.7L986.7,98l41.5-26.8c2.8,2.1,6.5,2.5,9.8,1.1l58.7,99.3
	c-3,4.6-1.7,10.8,2.9,13.8s10.8,1.7,13.8-2.9c1.8-2.7,2.1-6.2,0.9-9.2l90.5-71.4c2.3,2.4,5.6,3.5,8.8,2.9l26.8,62.8
	c-4.6,3.1-5.8,9.3-2.8,13.9c3.1,4.6,9.3,5.8,13.9,2.8c3.9-2.6,5.4-7.5,3.8-11.8L1298,143.6z M190.1,86c0,2.8-2.2,5-5,5s-5-2.2-5-5
	s2.2-5,5-5S190.1,83.2,190.1,86z M126.1,175c0,2.8-2.2,5-5,5s-5-2.2-5-5s2.2-5,5-5S126.1,172.2,126.1,175z M63.1,210
	c0,2.8-2.2,5-5,5s-5-2.2-5-5s2.2-5,5-5S63.1,207.2,63.1,210z M243.1,71c0-2.8,2.2-5,5-5s5,2.2,5,5s-2.2,5-5,5S243.1,73.8,243.1,71z
	 M373.1,40c0-2.8,2.2-5,5-5s5,2.2,5,5s-2.2,5-5,5C375.3,45,373.1,42.8,373.1,40C373.1,40,373.1,40,373.1,40L373.1,40z M307.1,254
	c0,2.8-2.2,5-5,5s-5-2.2-5-5c0-2.8,2.2-5,5-5C304.8,249,307.1,251.2,307.1,254L307.1,254z M557.1,40c0-2.8,2.2-5,5-5s5,2.2,5,5
	s-2.2,5-5,5S557.1,42.8,557.1,40z M498.1,168c0,2.8-2.2,5-5,5s-5-2.2-5-5s2.2-5,5-5C495.8,163,498.1,165.2,498.1,168L498.1,168z
	 M622.1,111c0,2.8-2.2,5-5,5s-5-2.2-5-5s2.2-5,5-5S622.1,108.2,622.1,111z M676.1,15c-2.8,0-5-2.2-5-5s2.2-5,5-5s5,2.2,5,5
	S678.8,15,676.1,15z M800.1,225c0,2.8-2.2,5-5,5s-5-2.2-5-5s2.2-5,5-5S800.1,222.2,800.1,225z M931.1,141c0,2.8-2.2,5-5,5
	s-5-2.2-5-5s2.2-5,5-5S931.1,138.2,931.1,141z M858.1,25c0-2.8,2.2-5,5-5s5,2.2,5,5s-2.2,5-5,5S858.1,27.8,858.1,25z M1110.1,177
	c0,2.8-2.2,5-5,5s-5-2.2-5-5s2.2-5,5-5C1107.8,172,1110.1,174.2,1110.1,177L1110.1,177z M1029.1,63c0-2.8,2.2-5,5-5s5,2.2,5,5
	c0,2.8-2.2,5-5,5C1031.3,68,1029.1,65.8,1029.1,63C1029.1,63,1029.1,63,1029.1,63L1029.1,63z M1207.1,95c0-2.8,2.2-5,5-5s5,2.2,5,5
	s-2.2,5-5,5C1209.3,100,1207.1,97.8,1207.1,95C1207.1,95,1207.1,95,1207.1,95L1207.1,95z M1251.1,176c0,2.8-2.2,5-5,5s-5-2.2-5-5
	s2.2-5,5-5C1248.8,171,1251.1,173.2,1251.1,176L1251.1,176z"/>
</svg>
