<svg id="Layer_1" data-name="Layer 1" xmlns="http://www.w3.org/2000/svg" xmlns:xlink="http://www.w3.org/1999/xlink" viewBox="0 0 1000 1000"><defs><style>.cls-1{fill:none;}.cls-2{fill:url(#radial-gradient);}.cls-3{opacity:0.9;fill:url(#radial-gradient-2);}.cls-4{opacity:0.8;fill:url(#radial-gradient-3);}.cls-5{opacity:0.7;fill:url(#radial-gradient-4);}.cls-6{opacity:0.4;fill:url(#radial-gradient-5);}.cls-7{opacity:0.5;fill:url(#radial-gradient-6);}.cls-8{opacity:0.6;fill:url(#radial-gradient-7);}.cls-9{isolation:isolate;}.cls-10{clip-path:url(#clip-path);}.cls-11{fill:#1c1f2a;}.cls-12{fill:#1b1e29;}.cls-13{fill:#1a1d27;}.cls-14{clip-path:url(#clip-path-2);}.cls-15{fill:#1f222f;}.cls-16{fill:#1e212d;}.cls-17{fill:#1d202c;}.cls-18{clip-path:url(#clip-path-3);}.cls-19{clip-path:url(#clip-path-4);}.cls-20{fill:#202330;}.cls-21{clip-path:url(#clip-path-5);}.cls-22{clip-path:url(#clip-path-6);}.cls-23{clip-path:url(#clip-path-7);}.cls-24{fill:#212432;}.cls-25{clip-path:url(#clip-path-8);}.cls-26{clip-path:url(#clip-path-9);}.cls-27{clip-path:url(#clip-path-10);}.cls-28{clip-path:url(#clip-path-11);}.cls-29{fill:#557d47;}.cls-30{fill:#58814a;}.cls-31{fill:#5a854c;}.cls-32{fill:#527945;}.cls-33{fill:#4f7543;}.cls-34{fill:#4d7140;}.cls-35{fill:#4a6d3e;}.cls-36{fill:#47693c;}.cls-37{clip-path:url(#clip-path-12);}.cls-38{clip-path:url(#clip-path-13);}.cls-39{clip-path:url(#clip-path-14);}.cls-40{clip-path:url(#clip-path-15);}.cls-41{clip-path:url(#clip-path-16);}.cls-42{clip-path:url(#clip-path-17);}.cls-43{clip-path:url(#clip-path-18);}.cls-44{clip-path:url(#clip-path-19);}.cls-45{clip-path:url(#clip-path-20);}.cls-46{clip-path:url(#clip-path-21);}.cls-47{clip-path:url(#clip-path-22);}.cls-48{clip-path:url(#clip-path-23);}.cls-49{clip-path:url(#clip-path-24);}.cls-50{clip-path:url(#clip-path-25);}.cls-51{fill:#2c3041;}.cls-52{fill:#78af64;}.cls-53{clip-path:url(#clip-path-26);}.cls-54{font-size:60px;fill:#89c973;font-family:Poppins-SemiBold, Poppins;font-weight:700;}</style><radialGradient id="radial-gradient" cx="471.99" cy="467.14" r="382.75" gradientTransform="translate(0.55 -16.97) scale(1 1.04)" gradientUnits="userSpaceOnUse"><stop offset="0" stop-color="#222a3f"/><stop offset="0.17" stop-color="#242e40"/><stop offset="0.33" stop-color="#2c3944"/><stop offset="0.48" stop-color="#384c4a"/><stop offset="0.63" stop-color="#496753"/><stop offset="0.78" stop-color="#5f895e"/><stop offset="0.93" stop-color="#7ab26c"/><stop offset="1" stop-color="#89c973"/></radialGradient><radialGradient id="radial-gradient-2" cx="471.99" cy="467.14" r="350.49" gradientTransform="matrix(1, 0, 0, 1, 0, 0)" xlink:href="#radial-gradient"/><radialGradient id="radial-gradient-3" cx="473.51" cy="469.97" r="316.43" gradientTransform="matrix(1, 0, 0, 1, 0, 0)" xlink:href="#radial-gradient"/><radialGradient id="radial-gradient-4" cx="475.26" cy="473.28" r="277.33" gradientTransform="matrix(1, 0, 0, 1, 0, 0)" xlink:href="#radial-gradient"/><radialGradient id="radial-gradient-5" cx="479.95" cy="482.22" r="172.31" gradientTransform="matrix(1, 0, 0, 1, 0, 0)" xlink:href="#radial-gradient"/><radialGradient id="radial-gradient-6" cx="478.55" cy="479.41" r="204.9" gradientTransform="matrix(1, 0, 0, 1, 0, 0)" xlink:href="#radial-gradient"/><radialGradient id="radial-gradient-7" cx="476.81" cy="476.22" r="242.55" gradientTransform="matrix(1, 0, 0, 1, 0, 0)" xlink:href="#radial-gradient"/><clipPath id="clip-path"><path class="cls-1" d="M344.54,541.19l22.79,12.4a107.9,107.9,0,0,1-7.92,18h0q-.49.88-1,1.74l-22.79-12.4q.52-.87,1-1.74h0A107.9,107.9,0,0,0,344.54,541.19Z"/></clipPath><clipPath id="clip-path-2"><path class="cls-1" d="M335.61,560.93l22.79,12.4a75.07,75.07,0,0,1-15.29,18l-22.79-12.4A75.07,75.07,0,0,0,335.61,560.93Z"/></clipPath><clipPath id="clip-path-3"><path class="cls-1" d="M350.13,520.48l22.79,12.4q-.31,1.45-.64,2.91a166.72,166.72,0,0,1-5,17.8l-22.79-12.4a166.71,166.71,0,0,0,5-17.8h0Q349.82,521.93,350.13,520.48Z"/></clipPath><clipPath id="clip-path-4"><path class="cls-1" d="M313.18,584.5h0a87.72,87.72,0,0,0,7.14-5.56l22.79,12.4A87.72,87.72,0,0,1,336,596.9h0a73.08,73.08,0,0,1-9.66,5.72l-22.79-12.4A73.08,73.08,0,0,0,313.18,584.5Z"/></clipPath><clipPath id="clip-path-5"><path class="cls-1" d="M355.17,489,378,501.36a294.59,294.59,0,0,1-5,31.52l-22.79-12.4A294.59,294.59,0,0,0,355.17,489Z"/></clipPath><clipPath id="clip-path-6"><path class="cls-1" d="M355.17,489q.29-2.88.52-5.71l22.79,12.4q-.22,2.83-.52,5.71Z"/></clipPath><clipPath id="clip-path-7"><path class="cls-1" d="M303.52,590.21l22.79,12.4a84.8,84.8,0,0,1-25.83,7.75L277.69,598h0A84.8,84.8,0,0,0,303.52,590.21Z"/></clipPath><clipPath id="clip-path-8"><path class="cls-1" d="M274.81,598.32q1.43-.16,2.88-.36l22.79,12.4q-1.45.2-2.88.36Z"/></clipPath><clipPath id="clip-path-9"><path class="cls-1" d="M274.81,598.32a1.6,1.6,0,0,1,.38.2l2.89,1.57,3.25,1.77,1.9,1,2,1.1,2.09,1.14,2.13,1.16,8.14,4.43a73.1,73.1,0,0,1-22-.66l-22.79-12.4A73.1,73.1,0,0,0,274.81,598.32Z"/></clipPath><clipPath id="clip-path-10"><path class="cls-1" d="M251.1,597.3l1.73.36,22.79,12.4-1.73-.36Z"/></clipPath><clipPath id="clip-path-11"><path class="cls-1" d="M263.37,597.21l-22.79-12.4a54.83,54.83,0,0,0,5,2.38c9,3.79,19.8,4.82,32.17,3.08s23.19-5.82,32.2-12.13a68.53,68.53,0,0,0,20.78-22.35c4.92-8.72,8.92-19.91,11.9-33.27a282.21,282.21,0,0,0,6-38.91L371.39,496a282.21,282.21,0,0,1-6,38.91c-3,13.36-7,24.55-11.9,33.27a68.53,68.53,0,0,1-20.78,22.35c-9,6.31-19.84,10.39-32.2,12.13s-23.19.7-32.17-3.08A54.82,54.82,0,0,1,263.37,597.21Z"/></clipPath><clipPath id="clip-path-12"><path class="cls-1" d="M251.1,597.3l.17.09,2.72,1.48L273.9,609.7a52.86,52.86,0,0,1-8.87-2.83,60.62,60.62,0,0,1-5.51-2.64l-22.79-12.4a60.62,60.62,0,0,0,5.51,2.64A52.86,52.86,0,0,0,251.1,597.3Z"/></clipPath><clipPath id="clip-path-13"><path class="cls-1" d="M219,672.21l-22.79-12.4a97.55,97.55,0,0,0,15,6.57c18.74,6.45,41,7.92,66.12,4.39s47.39-11.26,66.18-23,34.48-27.61,47-47.43l22.79,12.4c-12.48,19.82-28.28,35.78-47,47.43s-41,19.45-66.18,23-47.37,2.06-66.12-4.39A97.55,97.55,0,0,1,219,672.21Z"/></clipPath><clipPath id="clip-path-14"><path class="cls-1" d="M359.15,240.74l22.79,12.4a99.85,99.85,0,0,1,31.87,27.7c25.1,33,37.76,87,37.62,160.63s-13,131.21-38.24,171.29l-22.79-12.4c25.24-40.07,38.1-97.7,38.24-171.29S416.12,301.44,391,268.44A99.85,99.85,0,0,0,359.15,240.74Z"/></clipPath><clipPath id="clip-path-15"><path class="cls-1" d="M337,324.4a50,50,0,0,0-17.68-15.68l22.79,12.4a50,50,0,0,1,17.68,15.68c5.35,7.82,9.65,18.56,12.77,31.92a254.64,254.64,0,0,1,6,38.42c.93,12.38,1.39,27.2,1.36,44.06s-.55,31.82-1.52,44.46l-22.79-12.4c1-12.64,1.49-27.6,1.52-44.46s-.43-31.68-1.36-44.06a254.64,254.64,0,0,0-6-38.42C346.68,343,342.39,332.22,337,324.4Z"/></clipPath><clipPath id="clip-path-16"><path class="cls-1" d="M315.51,315.74l22.79,12.4a44.07,44.07,0,0,1,15.62,13.78c4.87,7.14,8.83,17.1,11.76,29.59a247.87,247.87,0,0,1,5.86,37.25c.91,12.16,1.37,26.77,1.34,43.42s-.54,31.39-1.5,43.82l-22.79-12.4c1-12.43,1.47-27.17,1.5-43.82s-.42-31.26-1.34-43.42a247.87,247.87,0,0,0-5.86-37.25c-2.92-12.49-6.89-22.46-11.76-29.59A44.07,44.07,0,0,0,315.51,315.74Z"/></clipPath><clipPath id="clip-path-17"><path class="cls-1" d="M319.33,308.71l22.79,12.4q-2.69-1.46-5.64-2.71L313.69,306Q316.64,307.25,319.33,308.71Z"/></clipPath><clipPath id="clip-path-18"><path class="cls-1" d="M344.21,234.17h0a97.71,97.71,0,0,1,14.89,6.54l22.79,12.4A97.71,97.71,0,0,0,367,246.57h0q-4.66-1.6-9.6-2.79l-22.79-12.4Q339.55,232.57,344.21,234.17Z"/></clipPath><clipPath id="clip-path-19"><path class="cls-1" d="M128.51,517.5l22.79,12.4c4.29,50.49,16.29,88.93,35.82,114.62h0A99.89,99.89,0,0,0,219,672.21l-22.79-12.4a99.89,99.89,0,0,1-31.87-27.69h0C144.8,606.43,132.8,568,128.51,517.5Z"/></clipPath><clipPath id="clip-path-20"><path class="cls-1" d="M259.52,604.23l-22.79-12.4a49.44,49.44,0,0,1-17.86-16.09c-5.34-8-9.63-18.86-12.75-32.19a253.39,253.39,0,0,1-6-38.42c-.94-12.25-1.39-27.08-1.36-44.06s.54-31.94,1.52-44.46a288.87,288.87,0,0,1,6.18-40.14c3.17-14.21,7.5-26.16,12.9-35.52a78.7,78.7,0,0,1,23.42-25c10-7,22-11.57,35.49-13.47s25.43-.72,35.45,3.5l22.79,12.4c-10-4.22-22-5.39-35.45-3.5s-25.45,6.43-35.49,13.47a78.7,78.7,0,0,0-23.42,25c-5.39,9.36-9.73,21.31-12.9,35.52A288.87,288.87,0,0,0,223,429c-1,12.52-1.49,27.48-1.52,44.46s.42,31.81,1.36,44.06a253.39,253.39,0,0,0,6,38.42c3.11,13.33,7.4,24.16,12.75,32.19A49.44,49.44,0,0,0,259.52,604.23Z"/></clipPath><clipPath id="clip-path-21"><path class="cls-1" d="M334.61,231.38a4.1,4.1,0,0,1,.42.23l6.89,3.75,15.48,8.42c-16.47-4-35.27-4.54-56-1.66l-22.79-12.4C299.34,226.85,318.14,227.41,334.61,231.38Z"/></clipPath><clipPath id="clip-path-22"><path class="cls-1" d="M126.72,471.5h0q0-13.74.64-26.73l22.79,12.4q-.62,13-.64,26.73h0q0,24.45,1.79,46l-22.79-12.4Q126.68,496,126.72,471.5Z"/></clipPath><clipPath id="clip-path-23"><path class="cls-1" d="M278.09,229.78l.48-.07,22.79,12.4-.48.07c-20.4,2.87-38.93,8.51-55.22,16.81l-22.79-12.4C239.16,238.29,257.68,232.65,278.09,229.78Z"/></clipPath><clipPath id="clip-path-24"><path class="cls-1" d="M222.86,246.59,245.65,259q-5.65,2.88-10.94,6.18a144.73,144.73,0,0,0-37.17,33.53l-22.18-12.07-.33-.18-.17-.09,0,0s0,0-.08,0a144.73,144.73,0,0,1,37.17-33.53Q217.21,249.47,222.86,246.59Z"/></clipPath><clipPath id="clip-path-25"><path class="cls-1" d="M174.75,286.3l22.79,12.4a162.08,162.08,0,0,0-9.8,13.91h0c-22.09,35.09-34.7,83.63-37.59,144.55l-12.88-7-4.42-2.4L130,446.21l-1.36-.74c-.39-.21-.86-.71-1.31-.71,2.89-60.93,15.5-109.47,37.59-144.55h0A162.08,162.08,0,0,1,174.75,286.3Z"/></clipPath><clipPath id="clip-path-26"><path class="cls-1" d="M215,679.1,192.2,666.7a105.11,105.11,0,0,1-33.59-29.19c-26-34.22-39.15-89.74-39-165S133.08,338,159.25,296.43c26.41-42,66.4-67,118.85-74.33,33.58-4.72,62-.77,85,11.75l22.79,12.4c-23-12.52-51.46-16.47-85-11.75-52.45,7.37-92.45,32.38-118.85,74.33-26.17,41.55-39.51,100.8-39.65,176.07s13,130.79,39,165A105.11,105.11,0,0,0,215,679.1Z"/></clipPath></defs><title>Untitled-3</title><path class="cls-2" d="M328.25,843c-11.75,0-24.07-3.13-37.44-9.41C199.73,790.82,130.15,713.82,94.89,616.76a399.12,399.12,0,0,1,9.24-297.06c41.22-94.5,115.44-166.69,209-203.27S508.35,83.26,599.42,126c38.62,18.13,92.18,49.13,128,93.84C764.1,265.57,775,316,759.89,369.74c-12.85,45.67-11.1,86.61,5.35,125.15,14.39,33.71,38.13,61.21,59.07,85.48,33.25,38.52,62,71.79,42.94,115.4-17.39,39.88-61.93,50.93-116.17,50.93-34.16,0-72.16-4.38-109.68-8.7-60.91-7-118.45-13.65-155.16-1.34-33.41,11.21-56.39,34.9-78.62,57.81-16.47,17-32,33-50.26,41.72A66.54,66.54,0,0,1,328.25,843Zm117-746.06A357,357,0,0,0,315,121.73C222.86,157.78,149.72,228.92,109.1,322A393.31,393.31,0,0,0,100,614.76c34.74,95.65,103.31,171.53,193.06,213.67,50.76,23.83,78.55-4.81,110.73-38,21.63-22.29,46.14-47.56,80.79-59.18,37.82-12.68,95.92-6,157.44,1.1,37.38,4.31,75.28,8.67,109.12,8.68,52.31,0,94.94-10.43,111.16-47.61,17.56-40.25-8.74-70.72-42-109.29-42.46-49.19-95.3-110.41-65.59-216,14.58-51.83,4-100.5-31.4-144.67-35.18-43.88-88-74.41-126.08-92.3A356.6,356.6,0,0,0,445.28,96.94Z"/><path class="cls-3" d="M340.21,799.25c-10.77,0-22.07-2.77-34.33-8.31A343.13,343.13,0,1,1,588.82,165.73c35.41,16,84.51,43.41,117.37,82.91,33.6,40.39,43.6,84.94,29.74,132.43-11.78,40.35-10.18,76.53,4.9,110.59,13.19,29.79,35,54.09,54.16,75.53,30.48,34,56.81,63.43,39.37,102-15.95,35.24-56.78,45-106.5,45-31.32,0-66.15-3.87-100.55-7.69-55.84-6.2-108.59-12.06-142.25-1.18-30.63,9.9-51.7,30.84-72.08,51.08-15.1,15-29.36,29.17-46.08,36.87A62.9,62.9,0,0,1,340.21,799.25ZM447.5,140A338.23,338.23,0,0,0,307.95,786.38c46.54,21.06,72-4.25,101.51-33.56,19.83-19.7,42.3-42,74.07-52.29,34.67-11.21,87.94-5.29,144.33,1,34.27,3.81,69,7.67,100,7.67,48,0,87-9.21,101.91-42.07,16.1-35.57-8-62.49-38.54-96.57-38.93-43.46-87.37-97.56-60.13-190.85,13.37-45.79,3.69-88.8-28.78-127.83-32.25-38.77-80.66-65.75-115.59-81.56A337.19,337.19,0,0,0,447.5,140Z"/><path class="cls-4" d="M354.53,769.8c-9.27,0-19.48-2.23-31-7.44A309.81,309.81,0,1,1,579,197.86c32,14.47,76.3,39.2,106,74.87,30.37,36.5,39.41,76.78,26.88,119.7-10.61,36.35-9.17,68.93,4.41,99.6,11.89,26.84,31.51,48.75,48.82,68.08,27.56,30.77,51.36,57.35,35.56,92.26-23.52,52-106.65,42.74-187,33.81-50.35-5.59-97.91-10.88-128.23-1.08-27.58,8.91-46.57,27.78-64.93,46C400.57,750.87,381.51,769.8,354.53,769.8Zm96.89-594.66A304.9,304.9,0,0,0,325.61,757.8c41.83,18.93,64.76-3.85,91.31-30.23,17.91-17.79,38.2-38,66.92-47.24,31.33-10.13,79.42-4.79,130.32.87,78.63,8.73,159.92,17.76,181.94-30.9,14.46-31.94-7.25-56.18-34.73-86.86-35.16-39.26-78.92-88.12-54.31-172.42,12-41.23,3.32-80-25.92-115.1-29.07-34.94-72.71-59.26-104.19-73.51A304,304,0,0,0,451.42,175.14Z"/><path class="cls-5" d="M371.12,736.08c-8.16,0-17.15-2-27.27-6.55a271.53,271.53,0,1,1,223.9-494.75c28,12.68,66.87,34.35,92.89,65.63,26.65,32,34.59,67.39,23.59,105.08-9.27,31.75-8,60.2,3.85,87,10.38,23.45,27.54,42.61,42.68,59.52,24.2,27,45.1,50.35,31.18,81.1-20.68,45.7-93.58,37.61-164.07,29.78-44-4.89-85.65-9.51-112.13-1-24.07,7.78-40.67,24.27-56.72,40.22C411.57,719.45,394.83,736.08,371.12,736.08Zm84.79-520.6A266.61,266.61,0,0,0,345.9,725c36.42,16.48,56.43-3.39,79.59-26.4,15.7-15.6,33.5-33.28,58.71-41.43,27.49-8.89,69.62-4.21,114.21.75,68.72,7.63,139.77,15.53,159-26.87,12.57-27.78-6.37-48.93-30.35-75.71-30.83-34.43-69.2-77.27-47.61-151.23,10.51-36,2.89-69.8-22.63-100.48s-63.57-51.81-91.1-64.27A265.8,265.8,0,0,0,455.91,215.48Z"/><path class="cls-6" d="M415.66,645.53a41.89,41.89,0,0,1-17.32-4.17,168.74,168.74,0,0,1-84.16-223.3c38.36-84.77,138.53-122.52,223.3-84.16,17.4,7.88,41.54,21.35,57.74,40.81,16.69,20.06,21.65,42.2,14.76,65.81-12.71,43.55,9.21,68,28.55,89.62,15.18,16.94,28.28,31.58,19.43,51.15-13.07,28.87-58.46,23.83-102.36,19-27.11-3-52.72-5.86-68.88-.63C472,604.35,461.87,614.46,452,624.23,441.09,635.1,430.6,645.53,415.66,645.53ZM468.15,323.9a163.73,163.73,0,0,0-67.75,312.9c21.91,9.92,33.47-1.58,48.11-16.12,9.78-9.71,20.86-20.73,36.66-25.83,17.19-5.55,43.31-2.65,71,.42,42.12,4.68,85.68,9.52,97.25-16,7.51-16.6-4-29.46-18.6-45.75-19.21-21.45-43.12-48.14-29.62-94.35,6.65-22.79,6.44-66.18-69.76-100.66A162.81,162.81,0,0,0,468.15,323.9Z"/><path class="cls-7" d="M401.83,673.64c-6.1,0-12.83-1.47-20.41-4.91C280.62,623.12,235.73,504,281.34,403.2A200.65,200.65,0,0,1,546.87,303.13c20.7,9.37,49.41,25.39,68.65,48.52,19.78,23.78,25.67,50,17.5,78-15.23,52.16,11,81.44,34.13,107.28,18,20.07,33.5,37.41,23.08,60.45-15.43,34.1-69.36,28.11-121.52,22.31-32.37-3.6-62.94-7-82.31-.73-17.58,5.68-29.75,17.77-41.51,29.46C431.93,661.29,419.49,673.64,401.83,673.64Zm62.4-383.47A196.15,196.15,0,0,0,285.9,405.27c-44.48,98.29-.7,214.43,97.58,258.91,26.41,12,40.3-1.84,57.89-19.31,11.62-11.54,24.78-24.62,43.5-30.67,20.38-6.59,51.48-3.14,84.4.52,50.38,5.6,102.47,11.38,116.41-19.41,9.08-20.07-4.74-35.51-22.25-55-22.82-25.48-51.21-57.19-35.21-112,7.67-26.29,2.11-51-16.54-73.4s-46.65-38-66.87-47.16A195.11,195.11,0,0,0,464.23,290.17Z"/><path class="cls-8" d="M385.87,706.08c-7.17,0-15.07-1.73-24-5.76A237.48,237.48,0,0,1,557.71,267.61h0c24.5,11.09,58.48,30,81.24,57.41,23.35,28.07,30.31,59,20.66,92.07-8.07,27.66-7,52.44,3.35,75.76,9.05,20.44,24,37.15,37.23,51.9,21.21,23.68,39.53,44.13,27.29,71.18-18.16,40.13-81.94,33-143.63,26.19-38.44-4.27-74.74-8.3-97.8-.85-21,6.77-35.42,21.15-49.42,35.05C421.35,691.51,406.68,706.08,385.87,706.08Zm74-454.72a232.55,232.55,0,0,0-96,444.4c31.62,14.31,48.18-2.15,69.16-23,13.74-13.65,29.31-29.12,51.4-36.26,24.08-7.78,60.9-3.69,99.89.64,59.91,6.66,121.86,13.54,138.52-23.28,10.9-24.08-5.59-42.48-26.46-65.78-27-30.13-60.56-67.62-41.65-132.39,9.15-31.33,2.52-60.76-19.71-87.47S579.67,283,555.65,272.17h0A231.84,231.84,0,0,0,459.91,251.36Z"/><g class="cls-9"><g class="cls-9"><g class="cls-10"><g class="cls-9"><path class="cls-11" d="M355.7,577.47l-22.79-12.4q2-2.86,3.71-5.89.42-.75.83-1.51l22.79,12.4q-.41.77-.83,1.51-1.7,3-3.71,5.89"/><path class="cls-12" d="M360.25,570.07l-22.79-12.4a106.77,106.77,0,0,0,6.11-13.74l22.79,12.4a106.77,106.77,0,0,1-6.11,13.74"/><path class="cls-13" d="M366.36,556.34l-22.79-12.4a161.57,161.57,0,0,0,5.93-20.55,290.35,290.35,0,0,0,6.19-40.14l22.79,12.4a290.35,290.35,0,0,1-6.19,40.14,161.57,161.57,0,0,1-5.93,20.55"/></g></g></g><g class="cls-9"><g class="cls-14"><g class="cls-9"><path class="cls-15" d="M335.63,597.13l-22.79-12.4.34-.24a87,87,0,0,0,8.32-6.6l22.79,12.4a87,87,0,0,1-8.32,6.6l-.34.24"/><path class="cls-16" d="M344.29,590.3l-22.79-12.4a78.65,78.65,0,0,0,6.34-6.39l22.79,12.4a78.65,78.65,0,0,1-6.34,6.39"/><path class="cls-17" d="M350.63,583.91l-22.79-12.4a73.41,73.41,0,0,0,5.08-6.43l22.79,12.4a73.41,73.41,0,0,1-5.08,6.43"/><path class="cls-11" d="M355.7,577.47l-22.79-12.4q2-2.86,3.71-5.89.42-.75.83-1.51l22.79,12.4q-.41.77-.83,1.51-1.7,3-3.71,5.89"/></g></g></g><g class="cls-9"><g class="cls-18"><g class="cls-9"><path class="cls-13" d="M366.36,556.34l-22.79-12.4a161.57,161.57,0,0,0,5.93-20.55,290.35,290.35,0,0,0,6.19-40.14l22.79,12.4a290.35,290.35,0,0,1-6.19,40.14,161.57,161.57,0,0,1-5.93,20.55"/></g></g></g><g class="cls-9"><g class="cls-19"><g class="cls-9"><path class="cls-20" d="M325.11,603.19l-22.79-12.4a73.39,73.39,0,0,0,10.52-6.06l22.79,12.4a73.39,73.39,0,0,1-10.52,6.06"/><path class="cls-15" d="M335.63,597.13l-22.79-12.4.34-.24a87,87,0,0,0,8.32-6.6l22.79,12.4a87,87,0,0,1-8.32,6.6l-.34.24"/></g></g></g><g class="cls-9"><g class="cls-21"><g class="cls-9"><path class="cls-13" d="M366.36,556.34l-22.79-12.4a161.57,161.57,0,0,0,5.93-20.55,290.35,290.35,0,0,0,6.19-40.14l22.79,12.4a290.35,290.35,0,0,1-6.19,40.14,161.57,161.57,0,0,1-5.93,20.55"/></g></g></g><g class="cls-9"><g class="cls-22"><g class="cls-9"><path class="cls-13" d="M366.36,556.34l-22.79-12.4a161.57,161.57,0,0,0,5.93-20.55,290.35,290.35,0,0,0,6.19-40.14l22.79,12.4a290.35,290.35,0,0,1-6.19,40.14,161.57,161.57,0,0,1-5.93,20.55"/></g></g></g><g class="cls-9"><g class="cls-23"><g class="cls-9"><path class="cls-24" d="M272.23,609.29l-22.79-12.4c8.37,2.17,17.84,2.53,28.25,1.07a85.37,85.37,0,0,0,24.63-7.17l22.79,12.4a85.37,85.37,0,0,1-24.63,7.17c-10.41,1.46-19.88,1.1-28.25-1.07"/><path class="cls-20" d="M325.11,603.19l-22.79-12.4a73.39,73.39,0,0,0,10.52-6.06l22.79,12.4a73.39,73.39,0,0,1-10.52,6.06"/></g></g></g><g class="cls-9"><g class="cls-25"><g class="cls-9"><path class="cls-24" d="M272.23,609.29l-22.79-12.4c8.37,2.17,17.84,2.53,28.25,1.07a85.37,85.37,0,0,0,24.63-7.17l22.79,12.4a85.37,85.37,0,0,1-24.63,7.17c-10.41,1.46-19.88,1.1-28.25-1.07"/></g></g></g><g class="cls-9"><g class="cls-26"><g class="cls-9"><path class="cls-24" d="M272.23,609.29l-22.79-12.4c8.37,2.17,17.84,2.53,28.25,1.07a85.37,85.37,0,0,0,24.63-7.17l22.79,12.4a85.37,85.37,0,0,1-24.63,7.17c-10.41,1.46-19.88,1.1-28.25-1.07"/></g></g></g><g class="cls-9"><g class="cls-27"><g class="cls-9"><path class="cls-24" d="M272.23,609.29l-22.79-12.4c8.37,2.17,17.84,2.53,28.25,1.07a85.37,85.37,0,0,0,24.63-7.17l22.79,12.4a85.37,85.37,0,0,1-24.63,7.17c-10.41,1.46-19.88,1.1-28.25-1.07"/></g></g></g><g class="cls-9"><g class="cls-28"><g class="cls-9"><path class="cls-29" d="M263.37,597.21l-22.79-12.4q.94.51,1.92,1l22.79,12.4q-1-.48-1.92-1"/><path class="cls-30" d="M265.29,598.21l-22.79-12.4q1.48.73,3,1.38a46.28,46.28,0,0,0,6.38,2.15l22.79,12.4a46.28,46.28,0,0,1-6.38-2.15q-1.56-.65-3-1.38"/><path class="cls-31" d="M274.7,601.74l-22.79-12.4c7.58,2,16.23,2.28,25.8.94a78.21,78.21,0,0,0,22.55-6.55L323,596.13a78.21,78.21,0,0,1-22.55,6.55c-9.57,1.34-18.22,1-25.8-.94"/><path class="cls-30" d="M323,596.13l-22.79-12.4a65.28,65.28,0,0,0,9.34-5.37l22.79,12.4a65.28,65.28,0,0,1-9.34,5.37"/><path class="cls-29" d="M332.39,590.76l-22.79-12.4.31-.22a78.44,78.44,0,0,0,7.48-5.94l22.79,12.4a78.44,78.44,0,0,1-7.48,5.94l-.31.22"/><path class="cls-32" d="M340.18,584.61l-22.79-12.4a69.88,69.88,0,0,0,5.63-5.67l22.79,12.4a69.88,69.88,0,0,1-5.63,5.67"/><path class="cls-33" d="M345.81,578.93,323,566.53a64.36,64.36,0,0,0,4.45-5.64l22.79,12.4a64.36,64.36,0,0,1-4.45,5.64"/><path class="cls-34" d="M350.26,573.29l-22.79-12.4q1.74-2.48,3.22-5.1.37-.66.73-1.33l22.79,12.4q-.36.67-.73,1.33-1.47,2.61-3.22,5.1"/><path class="cls-35" d="M354.21,566.86l-22.79-12.4A97.54,97.54,0,0,0,337,541.92l22.79,12.4a97.54,97.54,0,0,1-5.57,12.55"/><path class="cls-36" d="M359.79,554.31,337,541.92a152.85,152.85,0,0,0,5.59-19.4,282.21,282.21,0,0,0,6-38.91L371.39,496a282.21,282.21,0,0,1-6,38.91,152.85,152.85,0,0,1-5.59,19.4"/></g></g></g><g class="cls-9"><g class="cls-37"><g class="cls-9"><path class="cls-15" d="M259.52,604.23l-22.79-12.4q1,.57,2.13,1.1l22.79,12.4q-1.09-.53-2.13-1.1"/><path class="cls-20" d="M261.65,605.33l-22.79-12.4q1.64.81,3.38,1.54a52.2,52.2,0,0,0,7.2,2.43l22.79,12.4a52.2,52.2,0,0,1-7.2-2.43q-1.73-.73-3.38-1.54"/><path class="cls-24" d="M272.23,609.29l-22.79-12.4c8.37,2.17,17.84,2.53,28.25,1.07a85.37,85.37,0,0,0,24.63-7.17l22.79,12.4a85.37,85.37,0,0,1-24.63,7.17c-10.41,1.46-19.88,1.1-28.25-1.07"/></g></g></g><g class="cls-9"><g class="cls-38"><g class="cls-9"><path class="cls-29" d="M219,672.21l-22.79-12.4q1.72.94,3.49,1.81L222.47,674q-1.77-.87-3.49-1.81"/><path class="cls-30" d="M222.47,674l-22.79-12.4a98.14,98.14,0,0,0,11.47,4.76q3.8,1.31,7.79,2.34l22.79,12.4q-4-1-7.79-2.34A98.14,98.14,0,0,1,222.47,674"/><path class="cls-31" d="M241.74,681.12l-22.79-12.4c17,4.41,36.59,5.1,58.32,2A177.42,177.42,0,0,0,328.42,656l22.79,12.4a177.42,177.42,0,0,1-51.15,14.8c-21.73,3.05-41.31,2.37-58.32-2"/><path class="cls-30" d="M351.21,668.36,328.42,656a145.8,145.8,0,0,0,15-8.18q2.84-1.77,5.59-3.68l22.79,12.4q-2.75,1.9-5.59,3.68a145.8,145.8,0,0,1-15,8.18"/><path class="cls-29" d="M371.83,656.51,349,644.11A141.56,141.56,0,0,0,363.2,632.9L386,645.3a141.56,141.56,0,0,1-14.17,11.21"/><path class="cls-32" d="M386,645.3,363.2,632.9a147,147,0,0,0,11.84-12l22.79,12.4a147,147,0,0,1-11.84,12"/><path class="cls-33" d="M397.83,633.34,375,620.94a156.4,156.4,0,0,0,10.8-13.73l22.79,12.4a156.4,156.4,0,0,1-10.8,13.73"/><path class="cls-34" d="M408.64,619.61l-22.79-12.4q2.35-3.35,4.56-6.86l22.79,12.4q-2.21,3.51-4.56,6.86"/></g></g></g><g class="cls-9"><g class="cls-39"><g class="cls-9"><path class="cls-34" d="M413.2,612.75l-22.79-12.4q3.21-5.09,6.15-10.57l22.79,12.4q-2.94,5.47-6.15,10.57"/><path class="cls-35" d="M419.35,602.18l-22.79-12.4a210.91,210.91,0,0,0,12.14-27.2L431.48,575a210.91,210.91,0,0,1-12.14,27.2"/><path class="cls-36" d="M431.48,575l-22.79-12.4c13.16-35.84,19.85-80.54,20-133.52.14-73.59-12.52-127.63-37.62-160.63a99.85,99.85,0,0,0-31.87-27.7l22.79,12.4a99.85,99.85,0,0,1,31.87,27.7c25.1,33,37.76,87,37.62,160.63-.1,53-6.79,97.68-20,133.52"/></g></g></g><g class="cls-9"><g class="cls-40"><g class="cls-9"><path class="cls-13" d="M378.48,495.65l-22.79-12.4c1-12.64,1.49-27.6,1.52-44.46s-.43-31.68-1.36-44.06a254.64,254.64,0,0,0-6-38.42C346.68,343,342.39,332.22,337,324.4a50,50,0,0,0-17.71-15.7l22.79,12.4a50,50,0,0,1,17.71,15.7c5.35,7.82,9.65,18.56,12.77,31.92a254.64,254.64,0,0,1,6,38.42c.93,12.38,1.39,27.2,1.36,44.06s-.55,31.82-1.52,44.46"/></g></g></g><g class="cls-9"><g class="cls-41"><g class="cls-9"><path class="cls-36" d="M371.39,496l-22.79-12.4c1-12.43,1.47-27.17,1.5-43.82s-.42-31.26-1.34-43.42a247.87,247.87,0,0,0-5.86-37.25c-2.92-12.49-6.89-22.46-11.76-29.59a44.07,44.07,0,0,0-15.62-13.78l22.79,12.4a44.07,44.07,0,0,1,15.62,13.78c4.87,7.14,8.83,17.1,11.76,29.59a247.87,247.87,0,0,1,5.86,37.25c.91,12.16,1.37,26.77,1.34,43.42s-.54,31.39-1.5,43.82"/></g></g></g><g class="cls-9"><g class="cls-42"><g class="cls-9"><path class="cls-30" d="M336.49,318.4,313.69,306q1.76.74,3.43,1.56L339.91,320q-1.67-.82-3.43-1.56"/><path class="cls-29" d="M339.91,320l-22.79-12.4q1.13.55,2.21,1.15l22.79,12.4q-1.09-.59-2.21-1.15"/></g></g></g><g class="cls-9"><g class="cls-43"><g class="cls-9"><path class="cls-24" d="M249.73,257l-22.79-12.4a177.45,177.45,0,0,1,51.15-14.81c21.75-3.06,41.33-2.36,58.37,2.06l22.79,12.4c-17-4.42-36.62-5.12-58.37-2.06A177.45,177.45,0,0,0,249.73,257"/><path class="cls-20" d="M359.25,244.24l-22.79-12.4q4,1,7.76,2.33a98.32,98.32,0,0,1,11.45,4.76l22.79,12.4A98.32,98.32,0,0,0,367,246.57q-3.79-1.3-7.76-2.33"/><path class="cls-15" d="M378.45,251.33l-22.79-12.4q1.77.87,3.49,1.81l22.79,12.4q-1.73-.94-3.49-1.81"/></g></g></g><g class="cls-9"><g class="cls-44"><g class="cls-9"><path class="cls-13" d="M219,672.21l-22.79-12.4a99.89,99.89,0,0,1-31.86-27.68c-25.09-33-37.75-87-37.61-160.63.1-53,6.8-97.69,20-133.54l22.79,12.4c-13.16,35.84-19.86,80.55-20,133.54-.14,73.59,12.52,127.63,37.61,160.63A99.89,99.89,0,0,0,219,672.21"/></g></g></g><g class="cls-9"><g class="cls-45"><g class="cls-9"><path class="cls-36" d="M259.52,604.23l-22.79-12.4a49.44,49.44,0,0,1-17.86-16.09c-5.34-8-9.63-18.86-12.75-32.19a253.39,253.39,0,0,1-6-38.42c-.94-12.25-1.39-27.08-1.36-44.06s.54-31.94,1.52-44.46a288.87,288.87,0,0,1,6.18-40.14,157.54,157.54,0,0,1,5.79-20.07L235,368.8a157.54,157.54,0,0,0-5.79,20.07A288.87,288.87,0,0,0,223,429c-1,12.52-1.49,27.48-1.52,44.46s.42,31.81,1.36,44.06a253.39,253.39,0,0,0,6,38.42c3.11,13.33,7.4,24.16,12.75,32.19a49.44,49.44,0,0,0,17.86,16.09"/><path class="cls-35" d="M235,368.8l-22.79-12.4A104,104,0,0,1,218.17,343L241,355.44A104,104,0,0,0,235,368.8"/><path class="cls-34" d="M241,355.44,218.17,343q.57-1.07,1.16-2.09,1.54-2.68,3.34-5.24l22.79,12.4q-1.79,2.56-3.34,5.24-.59,1-1.16,2.09"/><path class="cls-33" d="M245.46,348.11l-22.79-12.4a73.7,73.7,0,0,1,5.1-6.46l22.79,12.4a73.7,73.7,0,0,0-5.1,6.46"/><path class="cls-32" d="M250.56,341.64l-22.79-12.4a80,80,0,0,1,6.45-6.5L257,335.15a80,80,0,0,0-6.45,6.5"/><path class="cls-29" d="M257,335.15l-22.79-12.4a89.69,89.69,0,0,1,8.53-6.77l.36-.25,22.79,12.4-.36.25a89.69,89.69,0,0,0-8.53,6.77"/><path class="cls-30" d="M265.91,328.12l-22.79-12.4a73.52,73.52,0,0,1,10.49-6l22.79,12.4a73.52,73.52,0,0,0-10.49,6"/><path class="cls-31" d="M276.4,322.08l-22.79-12.4a85.38,85.38,0,0,1,24.63-7.18c10.4-1.46,19.88-1.1,28.26,1.08L329.3,316c-8.39-2.17-17.86-2.54-28.26-1.08a85.38,85.38,0,0,0-24.63,7.18"/><path class="cls-30" d="M329.3,316l-22.79-12.4a52.52,52.52,0,0,1,7.19,2.42l22.79,12.4A52.52,52.52,0,0,0,329.3,316"/></g></g></g><g class="cls-9"><g class="cls-46"><g class="cls-9"><path class="cls-24" d="M249.73,257l-22.79-12.4a177.45,177.45,0,0,1,51.15-14.81c21.75-3.06,41.33-2.36,58.37,2.06l22.79,12.4c-17-4.42-36.62-5.12-58.37-2.06A177.45,177.45,0,0,0,249.73,257"/></g></g></g><g class="cls-9"><g class="cls-47"><g class="cls-9"><path class="cls-13" d="M219,672.21l-22.79-12.4a99.89,99.89,0,0,1-31.86-27.68c-25.09-33-37.75-87-37.61-160.63.1-53,6.8-97.69,20-133.54l22.79,12.4c-13.16,35.84-19.86,80.55-20,133.54-.14,73.59,12.52,127.63,37.61,160.63A99.89,99.89,0,0,0,219,672.21"/></g></g></g><g class="cls-9"><g class="cls-48"><g class="cls-9"><path class="cls-20" d="M229.14,268.83l-22.79-12.4q2.74-1.9,5.57-3.66a146,146,0,0,1,15-8.17L249.73,257a146,146,0,0,0-15,8.17q-2.83,1.77-5.57,3.66"/><path class="cls-24" d="M249.73,257l-22.79-12.4a177.45,177.45,0,0,1,51.15-14.81c21.75-3.06,41.33-2.36,58.37,2.06l22.79,12.4c-17-4.42-36.62-5.12-58.37-2.06A177.45,177.45,0,0,0,249.73,257"/></g></g></g><g class="cls-9"><g class="cls-49"><g class="cls-9"><path class="cls-17" d="M192.31,305.74l-22.79-12.4a156.2,156.2,0,0,1,10.79-13.71L203.1,292a156.2,156.2,0,0,0-10.79,13.71"/><path class="cls-16" d="M203.1,292l-22.79-12.4a147.09,147.09,0,0,1,11.84-12l22.79,12.4a147.09,147.09,0,0,0-11.84,12"/><path class="cls-15" d="M214.94,280.06l-22.79-12.4a141.89,141.89,0,0,1,14.2-11.23l22.79,12.4a141.89,141.89,0,0,0-14.2,11.23"/><path class="cls-20" d="M229.14,268.83l-22.79-12.4q2.74-1.9,5.57-3.66a146,146,0,0,1,15-8.17L249.73,257a146,146,0,0,0-15,8.17q-2.83,1.77-5.57,3.66"/></g></g></g><g class="cls-9"><g class="cls-50"><g class="cls-9"><path class="cls-13" d="M219,672.21l-22.79-12.4a99.89,99.89,0,0,1-31.86-27.68c-25.09-33-37.75-87-37.61-160.63.1-53,6.8-97.69,20-133.54l22.79,12.4c-13.16,35.84-19.86,80.55-20,133.54-.14,73.59,12.52,127.63,37.61,160.63A99.89,99.89,0,0,0,219,672.21"/><path class="cls-12" d="M169.47,350.36,146.67,338a210.93,210.93,0,0,1,12.14-27.2l22.79,12.4a210.93,210.93,0,0,0-12.14,27.2"/><path class="cls-11" d="M181.6,323.16l-22.79-12.4q2.94-5.46,6.14-10.55,2.21-3.52,4.57-6.87l22.79,12.4q-2.35,3.35-4.57,6.87-3.2,5.09-6.14,10.55"/><path class="cls-17" d="M192.31,305.74l-22.79-12.4a156.2,156.2,0,0,1,10.79-13.71L203.1,292a156.2,156.2,0,0,0-10.79,13.71"/></g></g></g><path class="cls-51" d="M413.81,280.84c25.1,33,37.76,87,37.62,160.63s-13,131.21-38.24,171.29c-12.48,19.82-28.28,35.78-47,47.43s-41,19.45-66.18,23-47.37,2.06-66.12-4.39-34.4-17.93-46.82-34.25c-25.09-33-37.75-87-37.61-160.63s13-131.21,38.23-171.29c12.48-19.83,28.29-35.78,47-47.44s41-19.45,66.17-23,47.37-2.05,66.12,4.39S401.4,264.51,413.81,280.84ZM378.48,495.65c1-12.64,1.49-27.6,1.52-44.46s-.43-31.68-1.36-44.06a254.64,254.64,0,0,0-6-38.42c-3.12-13.36-7.42-24.09-12.77-31.92-5.45-8-13.3-14.17-23.33-18.4s-22-5.39-35.46-3.5-25.45,6.43-35.49,13.47a78.68,78.68,0,0,0-23.42,25c-5.39,9.36-9.73,21.31-12.9,35.52A288.75,288.75,0,0,0,223,429c-1,12.52-1.49,27.48-1.52,44.46s.42,31.81,1.36,44.06a253.28,253.28,0,0,0,6,38.42c3.11,13.33,7.4,24.16,12.75,32.2,5.46,8.21,13.32,14.52,23.37,18.73s21.93,5.4,35.45,3.5,25.45-6.43,35.49-13.47a77.35,77.35,0,0,0,23.45-25.31c5.37-9.51,9.7-21.55,12.87-35.8a290.35,290.35,0,0,0,6.19-40.14"/><path class="cls-52" d="M419.54,275.45c26,34.22,39.15,89.74,39,165S445.08,575,418.91,616.53c-26.42,41.94-66.41,67-118.86,74.32s-92.37-6.41-118.64-40.95c-26-34.22-39.15-89.74-39-165S155.87,350.38,182,308.83c26.41-42,66.4-67,118.85-74.33S393.27,240.9,419.54,275.45Zm-6.34,337.3c25.24-40.07,38.1-97.7,38.24-171.29s-12.52-127.63-37.62-160.63C401.4,264.51,385.65,253,367,246.57s-41-7.92-66.12-4.39-47.39,11.27-66.17,23-34.49,27.61-47,47.44c-25.23,40.07-38.09,97.7-38.23,171.29S162,611.52,187.13,644.52c12.41,16.32,28.17,27.85,46.82,34.25s41,7.92,66.12,4.39,47.39-11.26,66.18-23,34.48-27.61,47-47.43"/><path class="cls-52" d="M372.29,535.79q1.17-5.24,2.14-10.38.49-2.57.92-5.11.87-5.09,1.55-10.06t1.15-9.8q.24-2.41.43-4.79t.34-4.85q.16-2.48.3-5.06.27-5.07.46-10.53v-.37q.18-5.44.29-11.24.1-6,.12-12.4c0-16.86-.43-31.68-1.36-44.05q-.18-2.32-.41-4.67a258.64,258.64,0,0,0-5.64-33.75q-.59-2.5-1.23-4.89c-3-11.11-6.86-20.19-11.54-27a46.91,46.91,0,0,0-4.53-5.64,54.44,54.44,0,0,0-18.81-12.76,58.68,58.68,0,0,0-20.95-4.34,84.43,84.43,0,0,0-14.51.84c-13.51,1.9-25.45,6.43-35.49,13.47a82.06,82.06,0,0,0-18.86,18,70.33,70.33,0,0,0-4.56,6.93c-5.39,9.36-9.73,21.31-12.9,35.52-2,9-3.56,17.72-4.7,26.19q-.59,4.38-1,8.64-.27,2.68-.48,5.31-.18,2.35-.35,4.81c-.65,9.84-1,21-1.14,33.38q0,3.09,0,6.27c0,8.57.09,16.58.32,24q.25,8,.69,15.06c.11,1.71.22,3.38.34,5q.35,4.65.91,9.39t1.31,9.55q.76,4.81,1.71,9.69t2.11,9.79q.58,2.5,1.22,4.88a121.21,121.21,0,0,0,4.31,13.2,75.92,75.92,0,0,0,7.21,14.11,47.65,47.65,0,0,0,8.45,9.56,50.4,50.4,0,0,0,4.55,3.56A57.61,57.61,0,0,0,265,606.87a56.18,56.18,0,0,0,16.41,4,72.73,72.73,0,0,0,9.21.3q2.38-.07,4.84-.28t5-.57q2.54-.36,5-.84a85.8,85.8,0,0,0,14.06-4A74.59,74.59,0,0,0,336,596.9a85.68,85.68,0,0,0,10.4-8.54q1.58-1.52,3-3.11a73.17,73.17,0,0,0,7.83-10.07q1.14-1.77,2.17-3.6t2-3.68q1.92-3.8,3.63-8.07.86-2.13,1.66-4.37A163.13,163.13,0,0,0,372.29,535.79Zm-18.81,32.4a68.54,68.54,0,0,1-20.78,22.35c-9,6.31-19.84,10.39-32.2,12.13s-23.19.7-32.17-3.08-15.92-9.32-20.7-16.52c-4.9-7.36-8.86-17.43-11.79-29.94A245.08,245.08,0,0,1,230,515.88c-.92-12-1.37-26.65-1.34-43.42s.54-31.51,1.51-43.82a279.72,279.72,0,0,1,6-38.92c3-13.3,7-24.38,11.88-32.92a69.75,69.75,0,0,1,20.8-22.08c9-6.31,19.85-10.4,32.2-12.14s23.17-.69,32.17,3.09,16,9.25,20.74,16.24,8.83,17.1,11.76,29.59a247.86,247.86,0,0,1,5.86,37.25c.91,12.16,1.37,26.77,1.34,43.42s-.54,31.39-1.5,43.82a282.13,282.13,0,0,1-6,38.91c-3,13.36-7,24.55-11.9,33.27"/><g class="cls-9"><g class="cls-53"><g class="cls-9"><path class="cls-36" d="M215,679.1,192.2,666.7a105.11,105.11,0,0,1-33.59-29.19c-26-34.22-39.15-89.74-39-165,.1-54,7-99.73,20.54-136.61l22.79,12.4c-13.54,36.88-20.43,82.63-20.54,136.61-.14,75.27,13,130.79,39,165A105.11,105.11,0,0,0,215,679.1"/><path class="cls-35" d="M162.93,348.28l-22.79-12.4a220,220,0,0,1,12.66-28.37l22.79,12.4a220,220,0,0,0-12.66,28.37"/><path class="cls-34" d="M175.59,319.91l-22.79-12.4q3.08-5.74,6.45-11.08,2.34-3.72,4.83-7.27l22.79,12.4q-2.49,3.55-4.83,7.27-3.37,5.35-6.45,11.08"/><path class="cls-33" d="M186.87,301.56l-22.79-12.4a164.42,164.42,0,0,1,11.36-14.44l22.79,12.4a164.42,164.42,0,0,0-11.36,14.44"/><path class="cls-32" d="M198.24,287.12l-22.79-12.4a154.75,154.75,0,0,1,12.48-12.61l22.79,12.4a154.75,154.75,0,0,0-12.48,12.61"/><path class="cls-29" d="M210.72,274.51l-22.79-12.4A150.91,150.91,0,0,1,203,250.17l22.79,12.4a150.91,150.91,0,0,0-15.1,11.94"/><path class="cls-30" d="M225.81,262.57,203,250.17a154.62,154.62,0,0,1,22.18-12.75L248,249.82a154.62,154.62,0,0,0-22.18,12.75"/><path class="cls-31" d="M248,249.82l-22.79-12.4A183.57,183.57,0,0,1,278.1,222.1q33.79-4.75,60.56,2.18l22.79,12.4q-26.72-6.91-60.56-2.18A183.57,183.57,0,0,0,248,249.82"/><path class="cls-30" d="M361.45,236.67l-22.79-12.4a108.32,108.32,0,0,1,20.76,7.65l22.79,12.4a108.32,108.32,0,0,0-20.76-7.65"/><path class="cls-29" d="M382.21,244.32l-22.79-12.4q1.89.93,3.73,1.93l22.79,12.4q-1.84-1-3.73-1.93"/></g></g></g></g><text class="cls-54" transform="translate(491.83 443.48)">Withdrawal<tspan x="0" y="72">Fees</tspan></text></svg>